solid OpenSCAD_Model
  facet normal 0.57735 0.57735 0.57735
    outer loop
      vertex 0 0.4 0.647214
      vertex 0.647214 0 0.4
      vertex 0.4 0.647214 0
    endloop
  endfacet
  facet normal -0 0.934172 0.356822
    outer loop
      vertex -0.4 0.647214 0
      vertex 0 0.4 0.647214
      vertex 0.4 0.647214 0
    endloop
  endfacet
  facet normal -0.57735 0.57735 0.57735
    outer loop
      vertex -0.647214 0 0.4
      vertex 0 0.4 0.647214
      vertex -0.4 0.647214 0
    endloop
  endfacet
  facet normal -0.356822 0 0.934172
    outer loop
      vertex 0 -0.4 0.647214
      vertex 0 0.4 0.647214
      vertex -0.647214 0 0.4
    endloop
  endfacet
  facet normal 0.356822 0 0.934172
    outer loop
      vertex 0.647214 0 0.4
      vertex 0 0.4 0.647214
      vertex 0 -0.4 0.647214
    endloop
  endfacet
  facet normal 0 -0.934172 0.356822
    outer loop
      vertex 0.4 -0.647214 0
      vertex 0 -0.4 0.647214
      vertex -0.4 -0.647214 0
    endloop
  endfacet
  facet normal 0.57735 -0.57735 0.57735
    outer loop
      vertex 0.647214 0 0.4
      vertex 0 -0.4 0.647214
      vertex 0.4 -0.647214 0
    endloop
  endfacet
  facet normal 0.934172 -0.356822 0
    outer loop
      vertex 0.647214 0 -0.4
      vertex 0.647214 0 0.4
      vertex 0.4 -0.647214 0
    endloop
  endfacet
  facet normal 0.934172 0.356822 0
    outer loop
      vertex 0.4 0.647214 0
      vertex 0.647214 0 0.4
      vertex 0.647214 0 -0.4
    endloop
  endfacet
  facet normal 0.57735 0.57735 -0.57735
    outer loop
      vertex 0 0.4 -0.647214
      vertex 0.4 0.647214 0
      vertex 0.647214 0 -0.4
    endloop
  endfacet
  facet normal 0 0.934172 -0.356822
    outer loop
      vertex -0.4 0.647214 0
      vertex 0.4 0.647214 0
      vertex 0 0.4 -0.647214
    endloop
  endfacet
  facet normal -0.57735 0.57735 -0.57735
    outer loop
      vertex -0.647214 0 -0.4
      vertex -0.4 0.647214 0
      vertex 0 0.4 -0.647214
    endloop
  endfacet
  facet normal -0.934172 0.356822 0
    outer loop
      vertex -0.647214 0 0.4
      vertex -0.4 0.647214 0
      vertex -0.647214 0 -0.4
    endloop
  endfacet
  facet normal -0.934172 -0.356822 0
    outer loop
      vertex -0.4 -0.647214 0
      vertex -0.647214 0 0.4
      vertex -0.647214 0 -0.4
    endloop
  endfacet
  facet normal -0.57735 -0.57735 0.57735
    outer loop
      vertex 0 -0.4 0.647214
      vertex -0.647214 0 0.4
      vertex -0.4 -0.647214 0
    endloop
  endfacet
  facet normal -0.57735 -0.57735 -0.57735
    outer loop
      vertex -0.647214 0 -0.4
      vertex 0 -0.4 -0.647214
      vertex -0.4 -0.647214 0
    endloop
  endfacet
  facet normal 0 -0.934172 -0.356822
    outer loop
      vertex -0.4 -0.647214 0
      vertex 0 -0.4 -0.647214
      vertex 0.4 -0.647214 0
    endloop
  endfacet
  facet normal 0.57735 -0.57735 -0.57735
    outer loop
      vertex 0.4 -0.647214 0
      vertex 0 -0.4 -0.647214
      vertex 0.647214 0 -0.4
    endloop
  endfacet
  facet normal 0.356822 0 -0.934172
    outer loop
      vertex 0 -0.4 -0.647214
      vertex 0 0.4 -0.647214
      vertex 0.647214 0 -0.4
    endloop
  endfacet
  facet normal -0.356822 0 -0.934172
    outer loop
      vertex 0 -0.4 -0.647214
      vertex -0.647214 0 -0.4
      vertex 0 0.4 -0.647214
    endloop
  endfacet
endsolid OpenSCAD_Model
