solid OpenSCAD_Model
  facet normal 0.57735 0.57735 0.57735
    outer loop
      vertex 0 8 12.9443
      vertex 12.9443 0 8
      vertex 8 12.9443 0
    endloop
  endfacet
  facet normal -0 0.934172 0.356822
    outer loop
      vertex -8 12.9443 0
      vertex 0 8 12.9443
      vertex 8 12.9443 0
    endloop
  endfacet
  facet normal -0.57735 0.57735 0.57735
    outer loop
      vertex -12.9443 0 8
      vertex 0 8 12.9443
      vertex -8 12.9443 0
    endloop
  endfacet
  facet normal -0.356822 0 0.934172
    outer loop
      vertex 0 -8 12.9443
      vertex 0 8 12.9443
      vertex -12.9443 0 8
    endloop
  endfacet
  facet normal 0.356822 0 0.934172
    outer loop
      vertex 12.9443 0 8
      vertex 0 8 12.9443
      vertex 0 -8 12.9443
    endloop
  endfacet
  facet normal 0 -0.934172 0.356822
    outer loop
      vertex 8 -12.9443 0
      vertex 0 -8 12.9443
      vertex -8 -12.9443 0
    endloop
  endfacet
  facet normal 0.57735 -0.57735 0.57735
    outer loop
      vertex 12.9443 0 8
      vertex 0 -8 12.9443
      vertex 8 -12.9443 0
    endloop
  endfacet
  facet normal 0.934172 -0.356822 0
    outer loop
      vertex 12.9443 0 -8
      vertex 12.9443 0 8
      vertex 8 -12.9443 0
    endloop
  endfacet
  facet normal 0.934172 0.356822 0
    outer loop
      vertex 8 12.9443 0
      vertex 12.9443 0 8
      vertex 12.9443 0 -8
    endloop
  endfacet
  facet normal 0.57735 0.57735 -0.57735
    outer loop
      vertex 0 8 -12.9443
      vertex 8 12.9443 0
      vertex 12.9443 0 -8
    endloop
  endfacet
  facet normal 0 0.934172 -0.356822
    outer loop
      vertex -8 12.9443 0
      vertex 8 12.9443 0
      vertex 0 8 -12.9443
    endloop
  endfacet
  facet normal -0.57735 0.57735 -0.57735
    outer loop
      vertex -12.9443 0 -8
      vertex -8 12.9443 0
      vertex 0 8 -12.9443
    endloop
  endfacet
  facet normal -0.934172 0.356822 0
    outer loop
      vertex -12.9443 0 8
      vertex -8 12.9443 0
      vertex -12.9443 0 -8
    endloop
  endfacet
  facet normal -0.934172 -0.356822 0
    outer loop
      vertex -8 -12.9443 0
      vertex -12.9443 0 8
      vertex -12.9443 0 -8
    endloop
  endfacet
  facet normal -0.57735 -0.57735 0.57735
    outer loop
      vertex 0 -8 12.9443
      vertex -12.9443 0 8
      vertex -8 -12.9443 0
    endloop
  endfacet
  facet normal -0.57735 -0.57735 -0.57735
    outer loop
      vertex -12.9443 0 -8
      vertex 0 -8 -12.9443
      vertex -8 -12.9443 0
    endloop
  endfacet
  facet normal 0 -0.934172 -0.356822
    outer loop
      vertex -8 -12.9443 0
      vertex 0 -8 -12.9443
      vertex 8 -12.9443 0
    endloop
  endfacet
  facet normal 0.57735 -0.57735 -0.57735
    outer loop
      vertex 8 -12.9443 0
      vertex 0 -8 -12.9443
      vertex 12.9443 0 -8
    endloop
  endfacet
  facet normal 0.356822 0 -0.934172
    outer loop
      vertex 0 -8 -12.9443
      vertex 0 8 -12.9443
      vertex 12.9443 0 -8
    endloop
  endfacet
  facet normal -0.356822 0 -0.934172
    outer loop
      vertex 0 -8 -12.9443
      vertex -12.9443 0 -8
      vertex 0 8 -12.9443
    endloop
  endfacet
endsolid OpenSCAD_Model
