solid OpenSCAD_Model
  facet normal 0.525731 -1.53024e-07 0.850651
    outer loop
      vertex 2.4 2.4 17.9331
      vertex 14.9666 2.4 10.1666
      vertex 12.5666 6.28328 11.6498
    endloop
  endfacet
  facet normal 0.525731 0 0.850651
    outer loop
      vertex 14.9666 2.4 10.1666
      vertex 2.4 2.4 17.9331
      vertex 14.9666 -2.4 10.1666
    endloop
  endfacet
  facet normal 0.525731 0 0.850651
    outer loop
      vertex 4.8 6.28328 16.4498
      vertex 12.5666 6.28328 11.6498
      vertex 8.68328 7.76656 14.0498
    endloop
  endfacet
  facet normal 0.525731 -0 0.850651
    outer loop
      vertex 2.4 -2.4 17.9331
      vertex 14.9666 -2.4 10.1666
      vertex 2.4 2.4 17.9331
    endloop
  endfacet
  facet normal 0.525731 1.63093e-07 0.850651
    outer loop
      vertex 12.5666 6.28328 11.6498
      vertex 4.8 6.28328 16.4498
      vertex 2.4 2.4 17.9331
    endloop
  endfacet
  facet normal 0.525731 1.53024e-07 0.850651
    outer loop
      vertex 14.9666 -2.4 10.1666
      vertex 2.4 -2.4 17.9331
      vertex 12.5666 -6.28328 11.6498
    endloop
  endfacet
  facet normal 0.525731 -1.63093e-07 0.850651
    outer loop
      vertex 4.8 -6.28328 16.4498
      vertex 12.5666 -6.28328 11.6498
      vertex 2.4 -2.4 17.9331
    endloop
  endfacet
  facet normal 0.525731 0 0.850651
    outer loop
      vertex 12.5666 -6.28328 11.6498
      vertex 4.8 -6.28328 16.4498
      vertex 8.68328 -7.76656 14.0498
    endloop
  endfacet
  facet normal -0.525731 8.84678e-08 0.850651
    outer loop
      vertex -14.9666 2.4 10.1666
      vertex -2.4 2.4 17.9331
      vertex -4.8 6.28328 16.4498
    endloop
  endfacet
  facet normal -0.525731 0 0.850651
    outer loop
      vertex -2.4 2.4 17.9331
      vertex -14.9666 2.4 10.1666
      vertex -2.4 -2.4 17.9331
    endloop
  endfacet
  facet normal -0.525731 0 0.850651
    outer loop
      vertex -12.5666 6.28328 11.6498
      vertex -4.8 6.28328 16.4498
      vertex -8.68328 7.76656 14.0498
    endloop
  endfacet
  facet normal -0.525731 0 0.850651
    outer loop
      vertex -14.9666 -2.4 10.1666
      vertex -2.4 -2.4 17.9331
      vertex -14.9666 2.4 10.1666
    endloop
  endfacet
  facet normal -0.525731 -2.27648e-07 0.850651
    outer loop
      vertex -4.8 6.28328 16.4498
      vertex -12.5666 6.28328 11.6498
      vertex -14.9666 2.4 10.1666
    endloop
  endfacet
  facet normal -0.525731 -8.84678e-08 0.850651
    outer loop
      vertex -2.4 -2.4 17.9331
      vertex -14.9666 -2.4 10.1666
      vertex -4.8 -6.28328 16.4498
    endloop
  endfacet
  facet normal -0.525731 2.27648e-07 0.850651
    outer loop
      vertex -12.5666 -6.28328 11.6498
      vertex -4.8 -6.28328 16.4498
      vertex -14.9666 -2.4 10.1666
    endloop
  endfacet
  facet normal -0.525731 0 0.850651
    outer loop
      vertex -4.8 -6.28328 16.4498
      vertex -12.5666 -6.28328 11.6498
      vertex -8.68328 -7.76656 14.0498
    endloop
  endfacet
  facet normal 1.53024e-07 -0.850651 0.525731
    outer loop
      vertex -2.4 -17.9331 2.4
      vertex -2.4 -10.1666 14.9666
      vertex -6.28328 -11.6498 12.5666
    endloop
  endfacet
  facet normal 0 -0.850651 0.525731
    outer loop
      vertex -2.4 -10.1666 14.9666
      vertex -2.4 -17.9331 2.4
      vertex 2.4 -10.1666 14.9666
    endloop
  endfacet
  facet normal 0 -0.850651 0.525731
    outer loop
      vertex -6.28328 -16.4498 4.8
      vertex -6.28328 -11.6498 12.5666
      vertex -7.76656 -14.0498 8.68328
    endloop
  endfacet
  facet normal 0 -0.850651 0.525731
    outer loop
      vertex 2.4 -17.9331 2.4
      vertex 2.4 -10.1666 14.9666
      vertex -2.4 -17.9331 2.4
    endloop
  endfacet
  facet normal -1.63093e-07 -0.850651 0.525731
    outer loop
      vertex -6.28328 -11.6498 12.5666
      vertex -6.28328 -16.4498 4.8
      vertex -2.4 -17.9331 2.4
    endloop
  endfacet
  facet normal -1.53024e-07 -0.850651 0.525731
    outer loop
      vertex 2.4 -10.1666 14.9666
      vertex 2.4 -17.9331 2.4
      vertex 6.28328 -11.6498 12.5666
    endloop
  endfacet
  facet normal 1.63093e-07 -0.850651 0.525731
    outer loop
      vertex 6.28328 -16.4498 4.8
      vertex 6.28328 -11.6498 12.5666
      vertex 2.4 -17.9331 2.4
    endloop
  endfacet
  facet normal 0 -0.850651 0.525731
    outer loop
      vertex 6.28328 -11.6498 12.5666
      vertex 6.28328 -16.4498 4.8
      vertex 7.76656 -14.0498 8.68328
    endloop
  endfacet
  facet normal 0.850651 -0.525731 8.84678e-08
    outer loop
      vertex 10.1666 -14.9666 2.4
      vertex 17.9331 -2.4 2.4
      vertex 16.4498 -4.8 6.28328
    endloop
  endfacet
  facet normal 0.850651 -0.525731 0
    outer loop
      vertex 17.9331 -2.4 2.4
      vertex 10.1666 -14.9666 2.4
      vertex 17.9331 -2.4 -2.4
    endloop
  endfacet
  facet normal 0.850651 -0.525731 0
    outer loop
      vertex 11.6498 -12.5666 6.28328
      vertex 16.4498 -4.8 6.28328
      vertex 14.0498 -8.68328 7.76656
    endloop
  endfacet
  facet normal 0.850651 -0.525731 0
    outer loop
      vertex 10.1666 -14.9666 -2.4
      vertex 17.9331 -2.4 -2.4
      vertex 10.1666 -14.9666 2.4
    endloop
  endfacet
  facet normal 0.850651 -0.525731 -2.27648e-07
    outer loop
      vertex 16.4498 -4.8 6.28328
      vertex 11.6498 -12.5666 6.28328
      vertex 10.1666 -14.9666 2.4
    endloop
  endfacet
  facet normal 0.850651 -0.525731 -8.84678e-08
    outer loop
      vertex 17.9331 -2.4 -2.4
      vertex 10.1666 -14.9666 -2.4
      vertex 16.4498 -4.8 -6.28328
    endloop
  endfacet
  facet normal 0.850651 -0.525731 2.27648e-07
    outer loop
      vertex 11.6498 -12.5666 -6.28328
      vertex 16.4498 -4.8 -6.28328
      vertex 10.1666 -14.9666 -2.4
    endloop
  endfacet
  facet normal 0.850651 -0.525731 0
    outer loop
      vertex 16.4498 -4.8 -6.28328
      vertex 11.6498 -12.5666 -6.28328
      vertex 14.0498 -8.68328 -7.76656
    endloop
  endfacet
  facet normal 0.850651 0.525731 -1.53024e-07
    outer loop
      vertex 17.9331 2.4 2.4
      vertex 10.1666 14.9666 2.4
      vertex 11.6498 12.5666 6.28328
    endloop
  endfacet
  facet normal 0.850651 0.525731 0
    outer loop
      vertex 10.1666 14.9666 2.4
      vertex 17.9331 2.4 2.4
      vertex 10.1666 14.9666 -2.4
    endloop
  endfacet
  facet normal 0.850651 0.525731 0
    outer loop
      vertex 16.4498 4.8 6.28328
      vertex 11.6498 12.5666 6.28328
      vertex 14.0498 8.68328 7.76656
    endloop
  endfacet
  facet normal 0.850651 0.525731 -0
    outer loop
      vertex 17.9331 2.4 -2.4
      vertex 10.1666 14.9666 -2.4
      vertex 17.9331 2.4 2.4
    endloop
  endfacet
  facet normal 0.850651 0.525731 1.63093e-07
    outer loop
      vertex 11.6498 12.5666 6.28328
      vertex 16.4498 4.8 6.28328
      vertex 17.9331 2.4 2.4
    endloop
  endfacet
  facet normal 0.850651 0.525731 1.53024e-07
    outer loop
      vertex 10.1666 14.9666 -2.4
      vertex 17.9331 2.4 -2.4
      vertex 11.6498 12.5666 -6.28328
    endloop
  endfacet
  facet normal 0.850651 0.525731 -1.63093e-07
    outer loop
      vertex 16.4498 4.8 -6.28328
      vertex 11.6498 12.5666 -6.28328
      vertex 17.9331 2.4 -2.4
    endloop
  endfacet
  facet normal 0.850651 0.525731 0
    outer loop
      vertex 11.6498 12.5666 -6.28328
      vertex 16.4498 4.8 -6.28328
      vertex 14.0498 8.68328 -7.76656
    endloop
  endfacet
  facet normal -0.850651 -0.525731 -8.84678e-08
    outer loop
      vertex -10.1666 -14.9666 -2.4
      vertex -17.9331 -2.4 -2.4
      vertex -16.4498 -4.8 -6.28328
    endloop
  endfacet
  facet normal -0.850651 -0.525731 0
    outer loop
      vertex -17.9331 -2.4 -2.4
      vertex -10.1666 -14.9666 -2.4
      vertex -17.9331 -2.4 2.4
    endloop
  endfacet
  facet normal -0.850651 -0.525731 0
    outer loop
      vertex -11.6498 -12.5666 -6.28328
      vertex -16.4498 -4.8 -6.28328
      vertex -14.0498 -8.68328 -7.76656
    endloop
  endfacet
  facet normal -0.850651 -0.525731 -0
    outer loop
      vertex -10.1666 -14.9666 2.4
      vertex -17.9331 -2.4 2.4
      vertex -10.1666 -14.9666 -2.4
    endloop
  endfacet
  facet normal -0.850651 -0.525731 2.27648e-07
    outer loop
      vertex -16.4498 -4.8 -6.28328
      vertex -11.6498 -12.5666 -6.28328
      vertex -10.1666 -14.9666 -2.4
    endloop
  endfacet
  facet normal -0.850651 -0.525731 8.84678e-08
    outer loop
      vertex -17.9331 -2.4 2.4
      vertex -10.1666 -14.9666 2.4
      vertex -16.4498 -4.8 6.28328
    endloop
  endfacet
  facet normal -0.850651 -0.525731 -2.27648e-07
    outer loop
      vertex -11.6498 -12.5666 6.28328
      vertex -16.4498 -4.8 6.28328
      vertex -10.1666 -14.9666 2.4
    endloop
  endfacet
  facet normal -0.850651 -0.525731 0
    outer loop
      vertex -16.4498 -4.8 6.28328
      vertex -11.6498 -12.5666 6.28328
      vertex -14.0498 -8.68328 7.76656
    endloop
  endfacet
  facet normal -0.850651 0.525731 1.53024e-07
    outer loop
      vertex -17.9331 2.4 -2.4
      vertex -10.1666 14.9666 -2.4
      vertex -11.6498 12.5666 -6.28328
    endloop
  endfacet
  facet normal -0.850651 0.525731 0
    outer loop
      vertex -10.1666 14.9666 -2.4
      vertex -17.9331 2.4 -2.4
      vertex -10.1666 14.9666 2.4
    endloop
  endfacet
  facet normal -0.850651 0.525731 0
    outer loop
      vertex -16.4498 4.8 -6.28328
      vertex -11.6498 12.5666 -6.28328
      vertex -14.0498 8.68328 -7.76656
    endloop
  endfacet
  facet normal -0.850651 0.525731 0
    outer loop
      vertex -17.9331 2.4 2.4
      vertex -10.1666 14.9666 2.4
      vertex -17.9331 2.4 -2.4
    endloop
  endfacet
  facet normal -0.850651 0.525731 -1.63093e-07
    outer loop
      vertex -11.6498 12.5666 -6.28328
      vertex -16.4498 4.8 -6.28328
      vertex -17.9331 2.4 -2.4
    endloop
  endfacet
  facet normal -0.850651 0.525731 -1.53024e-07
    outer loop
      vertex -10.1666 14.9666 2.4
      vertex -17.9331 2.4 2.4
      vertex -11.6498 12.5666 6.28328
    endloop
  endfacet
  facet normal -0.850651 0.525731 1.63093e-07
    outer loop
      vertex -16.4498 4.8 6.28328
      vertex -11.6498 12.5666 6.28328
      vertex -17.9331 2.4 2.4
    endloop
  endfacet
  facet normal -0.850651 0.525731 0
    outer loop
      vertex -11.6498 12.5666 6.28328
      vertex -16.4498 4.8 6.28328
      vertex -14.0498 8.68328 7.76656
    endloop
  endfacet
  facet normal -1.53024e-07 0.850651 0.525731
    outer loop
      vertex 2.4 17.9331 2.4
      vertex 2.4 10.1666 14.9666
      vertex 6.28328 11.6498 12.5666
    endloop
  endfacet
  facet normal 0 0.850651 0.525731
    outer loop
      vertex 2.4 10.1666 14.9666
      vertex 2.4 17.9331 2.4
      vertex -2.4 10.1666 14.9666
    endloop
  endfacet
  facet normal 0 0.850651 0.525731
    outer loop
      vertex 6.28328 16.4498 4.8
      vertex 6.28328 11.6498 12.5666
      vertex 7.76656 14.0498 8.68328
    endloop
  endfacet
  facet normal -0 0.850651 0.525731
    outer loop
      vertex -2.4 17.9331 2.4
      vertex -2.4 10.1666 14.9666
      vertex 2.4 17.9331 2.4
    endloop
  endfacet
  facet normal 1.63093e-07 0.850651 0.525731
    outer loop
      vertex 6.28328 11.6498 12.5666
      vertex 6.28328 16.4498 4.8
      vertex 2.4 17.9331 2.4
    endloop
  endfacet
  facet normal 1.53024e-07 0.850651 0.525731
    outer loop
      vertex -2.4 10.1666 14.9666
      vertex -2.4 17.9331 2.4
      vertex -6.28328 11.6498 12.5666
    endloop
  endfacet
  facet normal -1.63093e-07 0.850651 0.525731
    outer loop
      vertex -6.28328 16.4498 4.8
      vertex -6.28328 11.6498 12.5666
      vertex -2.4 17.9331 2.4
    endloop
  endfacet
  facet normal 0 0.850651 0.525731
    outer loop
      vertex -6.28328 11.6498 12.5666
      vertex -6.28328 16.4498 4.8
      vertex -7.76656 14.0498 8.68328
    endloop
  endfacet
  facet normal -8.84678e-08 -0.850651 -0.525731
    outer loop
      vertex -2.4 -10.1666 -14.9666
      vertex -2.4 -17.9331 -2.4
      vertex -6.28328 -16.4498 -4.8
    endloop
  endfacet
  facet normal 0 -0.850651 -0.525731
    outer loop
      vertex -2.4 -17.9331 -2.4
      vertex -2.4 -10.1666 -14.9666
      vertex 2.4 -17.9331 -2.4
    endloop
  endfacet
  facet normal 0 -0.850651 -0.525731
    outer loop
      vertex -6.28328 -11.6498 -12.5666
      vertex -6.28328 -16.4498 -4.8
      vertex -7.76656 -14.0498 -8.68328
    endloop
  endfacet
  facet normal -0 -0.850651 -0.525731
    outer loop
      vertex 2.4 -10.1666 -14.9666
      vertex 2.4 -17.9331 -2.4
      vertex -2.4 -10.1666 -14.9666
    endloop
  endfacet
  facet normal 2.27648e-07 -0.850651 -0.525731
    outer loop
      vertex -6.28328 -16.4498 -4.8
      vertex -6.28328 -11.6498 -12.5666
      vertex -2.4 -10.1666 -14.9666
    endloop
  endfacet
  facet normal 8.84678e-08 -0.850651 -0.525731
    outer loop
      vertex 2.4 -17.9331 -2.4
      vertex 2.4 -10.1666 -14.9666
      vertex 6.28328 -16.4498 -4.8
    endloop
  endfacet
  facet normal -2.27648e-07 -0.850651 -0.525731
    outer loop
      vertex 6.28328 -11.6498 -12.5666
      vertex 6.28328 -16.4498 -4.8
      vertex 2.4 -10.1666 -14.9666
    endloop
  endfacet
  facet normal 0 -0.850651 -0.525731
    outer loop
      vertex 6.28328 -16.4498 -4.8
      vertex 6.28328 -11.6498 -12.5666
      vertex 7.76656 -14.0498 -8.68328
    endloop
  endfacet
  facet normal 0.525731 1.53024e-07 -0.850651
    outer loop
      vertex 2.4 -2.4 -17.9331
      vertex 14.9666 -2.4 -10.1666
      vertex 12.5666 -6.28328 -11.6498
    endloop
  endfacet
  facet normal 0.525731 0 -0.850651
    outer loop
      vertex 14.9666 -2.4 -10.1666
      vertex 2.4 -2.4 -17.9331
      vertex 14.9666 2.4 -10.1666
    endloop
  endfacet
  facet normal 0.525731 0 -0.850651
    outer loop
      vertex 4.8 -6.28328 -16.4498
      vertex 12.5666 -6.28328 -11.6498
      vertex 8.68328 -7.76656 -14.0498
    endloop
  endfacet
  facet normal 0.525731 0 -0.850651
    outer loop
      vertex 2.4 2.4 -17.9331
      vertex 14.9666 2.4 -10.1666
      vertex 2.4 -2.4 -17.9331
    endloop
  endfacet
  facet normal 0.525731 -1.63093e-07 -0.850651
    outer loop
      vertex 12.5666 -6.28328 -11.6498
      vertex 4.8 -6.28328 -16.4498
      vertex 2.4 -2.4 -17.9331
    endloop
  endfacet
  facet normal 0.525731 -1.53024e-07 -0.850651
    outer loop
      vertex 14.9666 2.4 -10.1666
      vertex 2.4 2.4 -17.9331
      vertex 12.5666 6.28328 -11.6498
    endloop
  endfacet
  facet normal 0.525731 1.63093e-07 -0.850651
    outer loop
      vertex 4.8 6.28328 -16.4498
      vertex 12.5666 6.28328 -11.6498
      vertex 2.4 2.4 -17.9331
    endloop
  endfacet
  facet normal 0.525731 0 -0.850651
    outer loop
      vertex 12.5666 6.28328 -11.6498
      vertex 4.8 6.28328 -16.4498
      vertex 8.68328 7.76656 -14.0498
    endloop
  endfacet
  facet normal -0.525731 -8.84678e-08 -0.850651
    outer loop
      vertex -14.9666 -2.4 -10.1666
      vertex -2.4 -2.4 -17.9331
      vertex -4.8 -6.28328 -16.4498
    endloop
  endfacet
  facet normal -0.525731 0 -0.850651
    outer loop
      vertex -2.4 -2.4 -17.9331
      vertex -14.9666 -2.4 -10.1666
      vertex -2.4 2.4 -17.9331
    endloop
  endfacet
  facet normal -0.525731 0 -0.850651
    outer loop
      vertex -12.5666 -6.28328 -11.6498
      vertex -4.8 -6.28328 -16.4498
      vertex -8.68328 -7.76656 -14.0498
    endloop
  endfacet
  facet normal -0.525731 -0 -0.850651
    outer loop
      vertex -14.9666 2.4 -10.1666
      vertex -2.4 2.4 -17.9331
      vertex -14.9666 -2.4 -10.1666
    endloop
  endfacet
  facet normal -0.525731 2.27648e-07 -0.850651
    outer loop
      vertex -4.8 -6.28328 -16.4498
      vertex -12.5666 -6.28328 -11.6498
      vertex -14.9666 -2.4 -10.1666
    endloop
  endfacet
  facet normal -0.525731 8.84678e-08 -0.850651
    outer loop
      vertex -2.4 2.4 -17.9331
      vertex -14.9666 2.4 -10.1666
      vertex -4.8 6.28328 -16.4498
    endloop
  endfacet
  facet normal -0.525731 -2.27648e-07 -0.850651
    outer loop
      vertex -12.5666 6.28328 -11.6498
      vertex -4.8 6.28328 -16.4498
      vertex -14.9666 2.4 -10.1666
    endloop
  endfacet
  facet normal -0.525731 0 -0.850651
    outer loop
      vertex -4.8 6.28328 -16.4498
      vertex -12.5666 6.28328 -11.6498
      vertex -8.68328 7.76656 -14.0498
    endloop
  endfacet
  facet normal 8.84678e-08 0.850651 -0.525731
    outer loop
      vertex 2.4 10.1666 -14.9666
      vertex 2.4 17.9331 -2.4
      vertex 6.28328 16.4498 -4.8
    endloop
  endfacet
  facet normal 0 0.850651 -0.525731
    outer loop
      vertex 2.4 17.9331 -2.4
      vertex 2.4 10.1666 -14.9666
      vertex -2.4 17.9331 -2.4
    endloop
  endfacet
  facet normal 0 0.850651 -0.525731
    outer loop
      vertex 6.28328 11.6498 -12.5666
      vertex 6.28328 16.4498 -4.8
      vertex 7.76656 14.0498 -8.68328
    endloop
  endfacet
  facet normal 0 0.850651 -0.525731
    outer loop
      vertex -2.4 10.1666 -14.9666
      vertex -2.4 17.9331 -2.4
      vertex 2.4 10.1666 -14.9666
    endloop
  endfacet
  facet normal -2.27648e-07 0.850651 -0.525731
    outer loop
      vertex 6.28328 16.4498 -4.8
      vertex 6.28328 11.6498 -12.5666
      vertex 2.4 10.1666 -14.9666
    endloop
  endfacet
  facet normal -8.84678e-08 0.850651 -0.525731
    outer loop
      vertex -2.4 17.9331 -2.4
      vertex -2.4 10.1666 -14.9666
      vertex -6.28328 16.4498 -4.8
    endloop
  endfacet
  facet normal 2.27648e-07 0.850651 -0.525731
    outer loop
      vertex -6.28328 11.6498 -12.5666
      vertex -6.28328 16.4498 -4.8
      vertex -2.4 10.1666 -14.9666
    endloop
  endfacet
  facet normal 0 0.850651 -0.525731
    outer loop
      vertex -6.28328 16.4498 -4.8
      vertex -6.28328 11.6498 -12.5666
      vertex -7.76656 14.0498 -8.68328
    endloop
  endfacet
  facet normal -0.57735 0.57735 -0.57735
    outer loop
      vertex -14.0498 8.68328 -7.76656
      vertex -7.76656 14.0498 -8.68328
      vertex -6.28328 11.6498 -12.5666
    endloop
  endfacet
  facet normal -0.57735 0.57735 -0.57735
    outer loop
      vertex -7.76656 14.0498 -8.68328
      vertex -14.0498 8.68328 -7.76656
      vertex -11.6498 12.5666 -6.28328
    endloop
  endfacet
  facet normal -0.57735 0.57735 -0.57735
    outer loop
      vertex -12.5666 6.28328 -11.6498
      vertex -6.28328 11.6498 -12.5666
      vertex -8.68328 7.76656 -14.0498
    endloop
  endfacet
  facet normal -0.57735 0.57735 -0.57735
    outer loop
      vertex -6.28328 11.6498 -12.5666
      vertex -12.5666 6.28328 -11.6498
      vertex -14.0498 8.68328 -7.76656
    endloop
  endfacet
  facet normal -0.934172 1.50156e-07 -0.356822
    outer loop
      vertex -14.9666 2.4 -10.1666
      vertex -17.9331 2.4 -2.4
      vertex -16.4498 4.8 -6.28328
    endloop
  endfacet
  facet normal -0.934172 0 -0.356822
    outer loop
      vertex -14.9666 -2.4 -10.1666
      vertex -17.9331 2.4 -2.4
      vertex -14.9666 2.4 -10.1666
    endloop
  endfacet
  facet normal -0.934172 0 -0.356822
    outer loop
      vertex -14.9666 -2.4 -10.1666
      vertex -17.9331 -2.4 -2.4
      vertex -17.9331 2.4 -2.4
    endloop
  endfacet
  facet normal -0.934172 -1.50156e-07 -0.356822
    outer loop
      vertex -17.9331 -2.4 -2.4
      vertex -14.9666 -2.4 -10.1666
      vertex -16.4498 -4.8 -6.28328
    endloop
  endfacet
  facet normal -0.57735 -0.57735 -0.57735
    outer loop
      vertex -6.28328 -11.6498 -12.5666
      vertex -12.5666 -6.28328 -11.6498
      vertex -8.68328 -7.76656 -14.0498
    endloop
  endfacet
  facet normal -0.57735 -0.57735 -0.57735
    outer loop
      vertex -12.5666 -6.28328 -11.6498
      vertex -6.28328 -11.6498 -12.5666
      vertex -14.0498 -8.68328 -7.76656
    endloop
  endfacet
  facet normal -0.57735 -0.57735 -0.57735
    outer loop
      vertex -7.76656 -14.0498 -8.68328
      vertex -14.0498 -8.68328 -7.76656
      vertex -6.28328 -11.6498 -12.5666
    endloop
  endfacet
  facet normal -0.57735 -0.57735 -0.57735
    outer loop
      vertex -14.0498 -8.68328 -7.76656
      vertex -7.76656 -14.0498 -8.68328
      vertex -11.6498 -12.5666 -6.28328
    endloop
  endfacet
  facet normal 1.50156e-07 -0.356822 -0.934172
    outer loop
      vertex 2.4 -10.1666 -14.9666
      vertex 2.4 -2.4 -17.9331
      vertex 4.8 -6.28328 -16.4498
    endloop
  endfacet
  facet normal 0 -0.356822 -0.934172
    outer loop
      vertex -2.4 -10.1666 -14.9666
      vertex 2.4 -2.4 -17.9331
      vertex 2.4 -10.1666 -14.9666
    endloop
  endfacet
  facet normal 0 -0.356822 -0.934172
    outer loop
      vertex -2.4 -10.1666 -14.9666
      vertex -2.4 -2.4 -17.9331
      vertex 2.4 -2.4 -17.9331
    endloop
  endfacet
  facet normal -1.50156e-07 -0.356822 -0.934172
    outer loop
      vertex -2.4 -2.4 -17.9331
      vertex -2.4 -10.1666 -14.9666
      vertex -4.8 -6.28328 -16.4498
    endloop
  endfacet
  facet normal 1.50156e-07 0.356822 -0.934172
    outer loop
      vertex 2.4 2.4 -17.9331
      vertex 2.4 10.1666 -14.9666
      vertex 4.8 6.28328 -16.4498
    endloop
  endfacet
  facet normal 0 0.356822 -0.934172
    outer loop
      vertex -2.4 2.4 -17.9331
      vertex 2.4 10.1666 -14.9666
      vertex 2.4 2.4 -17.9331
    endloop
  endfacet
  facet normal 0 0.356822 -0.934172
    outer loop
      vertex -2.4 2.4 -17.9331
      vertex -2.4 10.1666 -14.9666
      vertex 2.4 10.1666 -14.9666
    endloop
  endfacet
  facet normal -1.50156e-07 0.356822 -0.934172
    outer loop
      vertex -2.4 10.1666 -14.9666
      vertex -2.4 2.4 -17.9331
      vertex -4.8 6.28328 -16.4498
    endloop
  endfacet
  facet normal 0.57735 0.57735 -0.57735
    outer loop
      vertex 14.0498 8.68328 -7.76656
      vertex 7.76656 14.0498 -8.68328
      vertex 11.6498 12.5666 -6.28328
    endloop
  endfacet
  facet normal 0.57735 0.57735 -0.57735
    outer loop
      vertex 7.76656 14.0498 -8.68328
      vertex 14.0498 8.68328 -7.76656
      vertex 6.28328 11.6498 -12.5666
    endloop
  endfacet
  facet normal 0.57735 0.57735 -0.57735
    outer loop
      vertex 12.5666 6.28328 -11.6498
      vertex 6.28328 11.6498 -12.5666
      vertex 14.0498 8.68328 -7.76656
    endloop
  endfacet
  facet normal 0.57735 0.57735 -0.57735
    outer loop
      vertex 6.28328 11.6498 -12.5666
      vertex 12.5666 6.28328 -11.6498
      vertex 8.68328 7.76656 -14.0498
    endloop
  endfacet
  facet normal 0.356822 0.934172 1.50156e-07
    outer loop
      vertex 10.1666 14.9666 2.4
      vertex 2.4 17.9331 2.4
      vertex 6.28328 16.4498 4.8
    endloop
  endfacet
  facet normal 0.356822 0.934172 -0
    outer loop
      vertex 10.1666 14.9666 -2.4
      vertex 2.4 17.9331 2.4
      vertex 10.1666 14.9666 2.4
    endloop
  endfacet
  facet normal 0.356822 0.934172 0
    outer loop
      vertex 10.1666 14.9666 -2.4
      vertex 2.4 17.9331 -2.4
      vertex 2.4 17.9331 2.4
    endloop
  endfacet
  facet normal 0.356822 0.934172 -1.50156e-07
    outer loop
      vertex 2.4 17.9331 -2.4
      vertex 10.1666 14.9666 -2.4
      vertex 6.28328 16.4498 -4.8
    endloop
  endfacet
  facet normal -0.356822 0.934172 1.50156e-07
    outer loop
      vertex -2.4 17.9331 2.4
      vertex -10.1666 14.9666 2.4
      vertex -6.28328 16.4498 4.8
    endloop
  endfacet
  facet normal -0.356822 0.934172 0
    outer loop
      vertex -2.4 17.9331 -2.4
      vertex -10.1666 14.9666 2.4
      vertex -2.4 17.9331 2.4
    endloop
  endfacet
  facet normal -0.356822 0.934172 0
    outer loop
      vertex -2.4 17.9331 -2.4
      vertex -10.1666 14.9666 -2.4
      vertex -10.1666 14.9666 2.4
    endloop
  endfacet
  facet normal -0.356822 0.934172 -1.50156e-07
    outer loop
      vertex -10.1666 14.9666 -2.4
      vertex -2.4 17.9331 -2.4
      vertex -6.28328 16.4498 -4.8
    endloop
  endfacet
  facet normal -0.57735 0.57735 0.57735
    outer loop
      vertex -14.0498 8.68328 7.76656
      vertex -7.76656 14.0498 8.68328
      vertex -11.6498 12.5666 6.28328
    endloop
  endfacet
  facet normal -0.57735 0.57735 0.57735
    outer loop
      vertex -7.76656 14.0498 8.68328
      vertex -14.0498 8.68328 7.76656
      vertex -6.28328 11.6498 12.5666
    endloop
  endfacet
  facet normal -0.57735 0.57735 0.57735
    outer loop
      vertex -12.5666 6.28328 11.6498
      vertex -6.28328 11.6498 12.5666
      vertex -14.0498 8.68328 7.76656
    endloop
  endfacet
  facet normal -0.57735 0.57735 0.57735
    outer loop
      vertex -6.28328 11.6498 12.5666
      vertex -12.5666 6.28328 11.6498
      vertex -8.68328 7.76656 14.0498
    endloop
  endfacet
  facet normal -0.934172 1.50156e-07 0.356822
    outer loop
      vertex -17.9331 2.4 2.4
      vertex -14.9666 2.4 10.1666
      vertex -16.4498 4.8 6.28328
    endloop
  endfacet
  facet normal -0.934172 0 0.356822
    outer loop
      vertex -17.9331 -2.4 2.4
      vertex -14.9666 2.4 10.1666
      vertex -17.9331 2.4 2.4
    endloop
  endfacet
  facet normal -0.934172 0 0.356822
    outer loop
      vertex -17.9331 -2.4 2.4
      vertex -14.9666 -2.4 10.1666
      vertex -14.9666 2.4 10.1666
    endloop
  endfacet
  facet normal -0.934172 -1.50156e-07 0.356822
    outer loop
      vertex -14.9666 -2.4 10.1666
      vertex -17.9331 -2.4 2.4
      vertex -16.4498 -4.8 6.28328
    endloop
  endfacet
  facet normal -0.356822 -0.934172 1.50156e-07
    outer loop
      vertex -10.1666 -14.9666 2.4
      vertex -2.4 -17.9331 2.4
      vertex -6.28328 -16.4498 4.8
    endloop
  endfacet
  facet normal -0.356822 -0.934172 0
    outer loop
      vertex -10.1666 -14.9666 -2.4
      vertex -2.4 -17.9331 2.4
      vertex -10.1666 -14.9666 2.4
    endloop
  endfacet
  facet normal -0.356822 -0.934172 0
    outer loop
      vertex -10.1666 -14.9666 -2.4
      vertex -2.4 -17.9331 -2.4
      vertex -2.4 -17.9331 2.4
    endloop
  endfacet
  facet normal -0.356822 -0.934172 -1.50156e-07
    outer loop
      vertex -2.4 -17.9331 -2.4
      vertex -10.1666 -14.9666 -2.4
      vertex -6.28328 -16.4498 -4.8
    endloop
  endfacet
  facet normal 0.356822 -0.934172 1.50156e-07
    outer loop
      vertex 2.4 -17.9331 2.4
      vertex 10.1666 -14.9666 2.4
      vertex 6.28328 -16.4498 4.8
    endloop
  endfacet
  facet normal 0.356822 -0.934172 0
    outer loop
      vertex 2.4 -17.9331 -2.4
      vertex 10.1666 -14.9666 2.4
      vertex 2.4 -17.9331 2.4
    endloop
  endfacet
  facet normal 0.356822 -0.934172 0
    outer loop
      vertex 2.4 -17.9331 -2.4
      vertex 10.1666 -14.9666 -2.4
      vertex 10.1666 -14.9666 2.4
    endloop
  endfacet
  facet normal 0.356822 -0.934172 -1.50156e-07
    outer loop
      vertex 10.1666 -14.9666 -2.4
      vertex 2.4 -17.9331 -2.4
      vertex 6.28328 -16.4498 -4.8
    endloop
  endfacet
  facet normal 0.57735 -0.57735 -0.57735
    outer loop
      vertex 6.28328 -11.6498 -12.5666
      vertex 12.5666 -6.28328 -11.6498
      vertex 14.0498 -8.68328 -7.76656
    endloop
  endfacet
  facet normal 0.57735 -0.57735 -0.57735
    outer loop
      vertex 12.5666 -6.28328 -11.6498
      vertex 6.28328 -11.6498 -12.5666
      vertex 8.68328 -7.76656 -14.0498
    endloop
  endfacet
  facet normal 0.57735 -0.57735 -0.57735
    outer loop
      vertex 7.76656 -14.0498 -8.68328
      vertex 14.0498 -8.68328 -7.76656
      vertex 11.6498 -12.5666 -6.28328
    endloop
  endfacet
  facet normal 0.57735 -0.57735 -0.57735
    outer loop
      vertex 14.0498 -8.68328 -7.76656
      vertex 7.76656 -14.0498 -8.68328
      vertex 6.28328 -11.6498 -12.5666
    endloop
  endfacet
  facet normal 0.934172 1.50156e-07 -0.356822
    outer loop
      vertex 17.9331 2.4 -2.4
      vertex 14.9666 2.4 -10.1666
      vertex 16.4498 4.8 -6.28328
    endloop
  endfacet
  facet normal 0.934172 0 -0.356822
    outer loop
      vertex 17.9331 -2.4 -2.4
      vertex 14.9666 2.4 -10.1666
      vertex 17.9331 2.4 -2.4
    endloop
  endfacet
  facet normal 0.934172 0 -0.356822
    outer loop
      vertex 17.9331 -2.4 -2.4
      vertex 14.9666 -2.4 -10.1666
      vertex 14.9666 2.4 -10.1666
    endloop
  endfacet
  facet normal 0.934172 -1.50156e-07 -0.356822
    outer loop
      vertex 14.9666 -2.4 -10.1666
      vertex 17.9331 -2.4 -2.4
      vertex 16.4498 -4.8 -6.28328
    endloop
  endfacet
  facet normal 0.57735 -0.57735 0.57735
    outer loop
      vertex 6.28328 -11.6498 12.5666
      vertex 12.5666 -6.28328 11.6498
      vertex 8.68328 -7.76656 14.0498
    endloop
  endfacet
  facet normal 0.57735 -0.57735 0.57735
    outer loop
      vertex 12.5666 -6.28328 11.6498
      vertex 6.28328 -11.6498 12.5666
      vertex 14.0498 -8.68328 7.76656
    endloop
  endfacet
  facet normal 0.57735 -0.57735 0.57735
    outer loop
      vertex 7.76656 -14.0498 8.68328
      vertex 14.0498 -8.68328 7.76656
      vertex 6.28328 -11.6498 12.5666
    endloop
  endfacet
  facet normal 0.57735 -0.57735 0.57735
    outer loop
      vertex 14.0498 -8.68328 7.76656
      vertex 7.76656 -14.0498 8.68328
      vertex 11.6498 -12.5666 6.28328
    endloop
  endfacet
  facet normal 0.934172 1.50156e-07 0.356822
    outer loop
      vertex 14.9666 2.4 10.1666
      vertex 17.9331 2.4 2.4
      vertex 16.4498 4.8 6.28328
    endloop
  endfacet
  facet normal 0.934172 -0 0.356822
    outer loop
      vertex 14.9666 -2.4 10.1666
      vertex 17.9331 2.4 2.4
      vertex 14.9666 2.4 10.1666
    endloop
  endfacet
  facet normal 0.934172 0 0.356822
    outer loop
      vertex 14.9666 -2.4 10.1666
      vertex 17.9331 -2.4 2.4
      vertex 17.9331 2.4 2.4
    endloop
  endfacet
  facet normal 0.934172 -1.50156e-07 0.356822
    outer loop
      vertex 17.9331 -2.4 2.4
      vertex 14.9666 -2.4 10.1666
      vertex 16.4498 -4.8 6.28328
    endloop
  endfacet
  facet normal 0.57735 0.57735 0.57735
    outer loop
      vertex 14.0498 8.68328 7.76656
      vertex 7.76656 14.0498 8.68328
      vertex 6.28328 11.6498 12.5666
    endloop
  endfacet
  facet normal 0.57735 0.57735 0.57735
    outer loop
      vertex 7.76656 14.0498 8.68328
      vertex 14.0498 8.68328 7.76656
      vertex 11.6498 12.5666 6.28328
    endloop
  endfacet
  facet normal 0.57735 0.57735 0.57735
    outer loop
      vertex 12.5666 6.28328 11.6498
      vertex 6.28328 11.6498 12.5666
      vertex 8.68328 7.76656 14.0498
    endloop
  endfacet
  facet normal 0.57735 0.57735 0.57735
    outer loop
      vertex 6.28328 11.6498 12.5666
      vertex 12.5666 6.28328 11.6498
      vertex 14.0498 8.68328 7.76656
    endloop
  endfacet
  facet normal 1.50156e-07 0.356822 0.934172
    outer loop
      vertex 2.4 10.1666 14.9666
      vertex 2.4 2.4 17.9331
      vertex 4.8 6.28328 16.4498
    endloop
  endfacet
  facet normal -0 0.356822 0.934172
    outer loop
      vertex -2.4 10.1666 14.9666
      vertex 2.4 2.4 17.9331
      vertex 2.4 10.1666 14.9666
    endloop
  endfacet
  facet normal 0 0.356822 0.934172
    outer loop
      vertex -2.4 10.1666 14.9666
      vertex -2.4 2.4 17.9331
      vertex 2.4 2.4 17.9331
    endloop
  endfacet
  facet normal -1.50156e-07 0.356822 0.934172
    outer loop
      vertex -2.4 2.4 17.9331
      vertex -2.4 10.1666 14.9666
      vertex -4.8 6.28328 16.4498
    endloop
  endfacet
  facet normal 1.50156e-07 -0.356822 0.934172
    outer loop
      vertex 2.4 -2.4 17.9331
      vertex 2.4 -10.1666 14.9666
      vertex 4.8 -6.28328 16.4498
    endloop
  endfacet
  facet normal 0 -0.356822 0.934172
    outer loop
      vertex -2.4 -2.4 17.9331
      vertex 2.4 -10.1666 14.9666
      vertex 2.4 -2.4 17.9331
    endloop
  endfacet
  facet normal 0 -0.356822 0.934172
    outer loop
      vertex -2.4 -2.4 17.9331
      vertex -2.4 -10.1666 14.9666
      vertex 2.4 -10.1666 14.9666
    endloop
  endfacet
  facet normal -1.50156e-07 -0.356822 0.934172
    outer loop
      vertex -2.4 -10.1666 14.9666
      vertex -2.4 -2.4 17.9331
      vertex -4.8 -6.28328 16.4498
    endloop
  endfacet
  facet normal -0.57735 -0.57735 0.57735
    outer loop
      vertex -6.28328 -11.6498 12.5666
      vertex -12.5666 -6.28328 11.6498
      vertex -14.0498 -8.68328 7.76656
    endloop
  endfacet
  facet normal -0.57735 -0.57735 0.57735
    outer loop
      vertex -12.5666 -6.28328 11.6498
      vertex -6.28328 -11.6498 12.5666
      vertex -8.68328 -7.76656 14.0498
    endloop
  endfacet
  facet normal -0.57735 -0.57735 0.57735
    outer loop
      vertex -7.76656 -14.0498 8.68328
      vertex -14.0498 -8.68328 7.76656
      vertex -11.6498 -12.5666 6.28328
    endloop
  endfacet
  facet normal -0.57735 -0.57735 0.57735
    outer loop
      vertex -14.0498 -8.68328 7.76656
      vertex -7.76656 -14.0498 8.68328
      vertex -6.28328 -11.6498 12.5666
    endloop
  endfacet
  facet normal -0.5 -0.809017 0.309017
    outer loop
      vertex -11.6498 -12.5666 6.28328
      vertex -6.28328 -16.4498 4.8
      vertex -7.76656 -14.0498 8.68328
    endloop
  endfacet
  facet normal -0.5 -0.809017 0.309017
    outer loop
      vertex -6.28328 -16.4498 4.8
      vertex -11.6498 -12.5666 6.28328
      vertex -10.1666 -14.9666 2.4
    endloop
  endfacet
  facet normal -0.309017 -0.5 0.809017
    outer loop
      vertex -4.8 -6.28328 16.4498
      vertex -6.28328 -11.6498 12.5666
      vertex -2.4 -10.1666 14.9666
    endloop
  endfacet
  facet normal -0.309017 -0.5 0.809017
    outer loop
      vertex -6.28328 -11.6498 12.5666
      vertex -4.8 -6.28328 16.4498
      vertex -8.68328 -7.76656 14.0498
    endloop
  endfacet
  facet normal -0.809017 -0.309017 0.5
    outer loop
      vertex -16.4498 -4.8 6.28328
      vertex -12.5666 -6.28328 11.6498
      vertex -14.9666 -2.4 10.1666
    endloop
  endfacet
  facet normal -0.809017 -0.309017 0.5
    outer loop
      vertex -12.5666 -6.28328 11.6498
      vertex -16.4498 -4.8 6.28328
      vertex -14.0498 -8.68328 7.76656
    endloop
  endfacet
  facet normal -0.5 -0.809017 -0.309017
    outer loop
      vertex -11.6498 -12.5666 -6.28328
      vertex -6.28328 -16.4498 -4.8
      vertex -10.1666 -14.9666 -2.4
    endloop
  endfacet
  facet normal -0.5 -0.809017 -0.309017
    outer loop
      vertex -6.28328 -16.4498 -4.8
      vertex -11.6498 -12.5666 -6.28328
      vertex -7.76656 -14.0498 -8.68328
    endloop
  endfacet
  facet normal 0 -1 0
    outer loop
      vertex -2.4 -17.9331 -2.4
      vertex 2.4 -17.9331 2.4
      vertex -2.4 -17.9331 2.4
    endloop
  endfacet
  facet normal 0 -1 -0
    outer loop
      vertex 2.4 -17.9331 2.4
      vertex -2.4 -17.9331 -2.4
      vertex 2.4 -17.9331 -2.4
    endloop
  endfacet
  facet normal -0.309017 -0.5 -0.809017
    outer loop
      vertex -6.28328 -11.6498 -12.5666
      vertex -4.8 -6.28328 -16.4498
      vertex -2.4 -10.1666 -14.9666
    endloop
  endfacet
  facet normal -0.309017 -0.5 -0.809017
    outer loop
      vertex -4.8 -6.28328 -16.4498
      vertex -6.28328 -11.6498 -12.5666
      vertex -8.68328 -7.76656 -14.0498
    endloop
  endfacet
  facet normal -0.809017 -0.309017 -0.5
    outer loop
      vertex -12.5666 -6.28328 -11.6498
      vertex -16.4498 -4.8 -6.28328
      vertex -14.9666 -2.4 -10.1666
    endloop
  endfacet
  facet normal -0.809017 -0.309017 -0.5
    outer loop
      vertex -16.4498 -4.8 -6.28328
      vertex -12.5666 -6.28328 -11.6498
      vertex -14.0498 -8.68328 -7.76656
    endloop
  endfacet
  facet normal -1 0 0
    outer loop
      vertex -17.9331 -2.4 -2.4
      vertex -17.9331 2.4 2.4
      vertex -17.9331 2.4 -2.4
    endloop
  endfacet
  facet normal -1 -0 0
    outer loop
      vertex -17.9331 2.4 2.4
      vertex -17.9331 -2.4 -2.4
      vertex -17.9331 -2.4 2.4
    endloop
  endfacet
  facet normal -0.809017 0.309017 -0.5
    outer loop
      vertex -12.5666 6.28328 -11.6498
      vertex -16.4498 4.8 -6.28328
      vertex -14.0498 8.68328 -7.76656
    endloop
  endfacet
  facet normal -0.809017 0.309017 -0.5
    outer loop
      vertex -16.4498 4.8 -6.28328
      vertex -12.5666 6.28328 -11.6498
      vertex -14.9666 2.4 -10.1666
    endloop
  endfacet
  facet normal -0.309017 0.5 -0.809017
    outer loop
      vertex -4.8 6.28328 -16.4498
      vertex -6.28328 11.6498 -12.5666
      vertex -2.4 10.1666 -14.9666
    endloop
  endfacet
  facet normal -0.309017 0.5 -0.809017
    outer loop
      vertex -6.28328 11.6498 -12.5666
      vertex -4.8 6.28328 -16.4498
      vertex -8.68328 7.76656 -14.0498
    endloop
  endfacet
  facet normal 0 0 -1
    outer loop
      vertex -2.4 -2.4 -17.9331
      vertex 2.4 2.4 -17.9331
      vertex 2.4 -2.4 -17.9331
    endloop
  endfacet
  facet normal -0 0 -1
    outer loop
      vertex 2.4 2.4 -17.9331
      vertex -2.4 -2.4 -17.9331
      vertex -2.4 2.4 -17.9331
    endloop
  endfacet
  facet normal 0.309017 -0.5 -0.809017
    outer loop
      vertex 6.28328 -11.6498 -12.5666
      vertex 4.8 -6.28328 -16.4498
      vertex 8.68328 -7.76656 -14.0498
    endloop
  endfacet
  facet normal 0.309017 -0.5 -0.809017
    outer loop
      vertex 4.8 -6.28328 -16.4498
      vertex 6.28328 -11.6498 -12.5666
      vertex 2.4 -10.1666 -14.9666
    endloop
  endfacet
  facet normal 0.5 -0.809017 -0.309017
    outer loop
      vertex 6.28328 -16.4498 -4.8
      vertex 11.6498 -12.5666 -6.28328
      vertex 10.1666 -14.9666 -2.4
    endloop
  endfacet
  facet normal 0.5 -0.809017 -0.309017
    outer loop
      vertex 11.6498 -12.5666 -6.28328
      vertex 6.28328 -16.4498 -4.8
      vertex 7.76656 -14.0498 -8.68328
    endloop
  endfacet
  facet normal 0.5 -0.809017 0.309017
    outer loop
      vertex 6.28328 -16.4498 4.8
      vertex 11.6498 -12.5666 6.28328
      vertex 7.76656 -14.0498 8.68328
    endloop
  endfacet
  facet normal 0.5 -0.809017 0.309017
    outer loop
      vertex 11.6498 -12.5666 6.28328
      vertex 6.28328 -16.4498 4.8
      vertex 10.1666 -14.9666 2.4
    endloop
  endfacet
  facet normal 0.309017 -0.5 0.809017
    outer loop
      vertex 4.8 -6.28328 16.4498
      vertex 6.28328 -11.6498 12.5666
      vertex 8.68328 -7.76656 14.0498
    endloop
  endfacet
  facet normal 0.309017 -0.5 0.809017
    outer loop
      vertex 6.28328 -11.6498 12.5666
      vertex 4.8 -6.28328 16.4498
      vertex 2.4 -10.1666 14.9666
    endloop
  endfacet
  facet normal -0 0 1
    outer loop
      vertex -2.4 2.4 17.9331
      vertex 2.4 -2.4 17.9331
      vertex 2.4 2.4 17.9331
    endloop
  endfacet
  facet normal 0 0 1
    outer loop
      vertex 2.4 -2.4 17.9331
      vertex -2.4 2.4 17.9331
      vertex -2.4 -2.4 17.9331
    endloop
  endfacet
  facet normal -0.309017 0.5 0.809017
    outer loop
      vertex -6.28328 11.6498 12.5666
      vertex -4.8 6.28328 16.4498
      vertex -2.4 10.1666 14.9666
    endloop
  endfacet
  facet normal -0.309017 0.5 0.809017
    outer loop
      vertex -4.8 6.28328 16.4498
      vertex -6.28328 11.6498 12.5666
      vertex -8.68328 7.76656 14.0498
    endloop
  endfacet
  facet normal -0.809017 0.309017 0.5
    outer loop
      vertex -16.4498 4.8 6.28328
      vertex -12.5666 6.28328 11.6498
      vertex -14.0498 8.68328 7.76656
    endloop
  endfacet
  facet normal -0.809017 0.309017 0.5
    outer loop
      vertex -12.5666 6.28328 11.6498
      vertex -16.4498 4.8 6.28328
      vertex -14.9666 2.4 10.1666
    endloop
  endfacet
  facet normal -0.5 0.809017 0.309017
    outer loop
      vertex -6.28328 16.4498 4.8
      vertex -11.6498 12.5666 6.28328
      vertex -7.76656 14.0498 8.68328
    endloop
  endfacet
  facet normal -0.5 0.809017 0.309017
    outer loop
      vertex -11.6498 12.5666 6.28328
      vertex -6.28328 16.4498 4.8
      vertex -10.1666 14.9666 2.4
    endloop
  endfacet
  facet normal -0.5 0.809017 -0.309017
    outer loop
      vertex -6.28328 16.4498 -4.8
      vertex -11.6498 12.5666 -6.28328
      vertex -10.1666 14.9666 -2.4
    endloop
  endfacet
  facet normal -0.5 0.809017 -0.309017
    outer loop
      vertex -11.6498 12.5666 -6.28328
      vertex -6.28328 16.4498 -4.8
      vertex -7.76656 14.0498 -8.68328
    endloop
  endfacet
  facet normal 0 1 -0
    outer loop
      vertex 2.4 17.9331 -2.4
      vertex -2.4 17.9331 2.4
      vertex 2.4 17.9331 2.4
    endloop
  endfacet
  facet normal 0 1 0
    outer loop
      vertex -2.4 17.9331 2.4
      vertex 2.4 17.9331 -2.4
      vertex -2.4 17.9331 -2.4
    endloop
  endfacet
  facet normal 0.5 0.809017 0.309017
    outer loop
      vertex 11.6498 12.5666 6.28328
      vertex 6.28328 16.4498 4.8
      vertex 7.76656 14.0498 8.68328
    endloop
  endfacet
  facet normal 0.5 0.809017 0.309017
    outer loop
      vertex 6.28328 16.4498 4.8
      vertex 11.6498 12.5666 6.28328
      vertex 10.1666 14.9666 2.4
    endloop
  endfacet
  facet normal 0.809017 0.309017 0.5
    outer loop
      vertex 12.5666 6.28328 11.6498
      vertex 16.4498 4.8 6.28328
      vertex 14.0498 8.68328 7.76656
    endloop
  endfacet
  facet normal 0.809017 0.309017 0.5
    outer loop
      vertex 16.4498 4.8 6.28328
      vertex 12.5666 6.28328 11.6498
      vertex 14.9666 2.4 10.1666
    endloop
  endfacet
  facet normal 0.809017 -0.309017 0.5
    outer loop
      vertex 12.5666 -6.28328 11.6498
      vertex 16.4498 -4.8 6.28328
      vertex 14.9666 -2.4 10.1666
    endloop
  endfacet
  facet normal 0.809017 -0.309017 0.5
    outer loop
      vertex 16.4498 -4.8 6.28328
      vertex 12.5666 -6.28328 11.6498
      vertex 14.0498 -8.68328 7.76656
    endloop
  endfacet
  facet normal 1 -0 0
    outer loop
      vertex 17.9331 -2.4 2.4
      vertex 17.9331 2.4 -2.4
      vertex 17.9331 2.4 2.4
    endloop
  endfacet
  facet normal 1 0 0
    outer loop
      vertex 17.9331 2.4 -2.4
      vertex 17.9331 -2.4 2.4
      vertex 17.9331 -2.4 -2.4
    endloop
  endfacet
  facet normal 0.809017 -0.309017 -0.5
    outer loop
      vertex 16.4498 -4.8 -6.28328
      vertex 12.5666 -6.28328 -11.6498
      vertex 14.9666 -2.4 -10.1666
    endloop
  endfacet
  facet normal 0.809017 -0.309017 -0.5
    outer loop
      vertex 12.5666 -6.28328 -11.6498
      vertex 16.4498 -4.8 -6.28328
      vertex 14.0498 -8.68328 -7.76656
    endloop
  endfacet
  facet normal 0.809017 0.309017 -0.5
    outer loop
      vertex 16.4498 4.8 -6.28328
      vertex 12.5666 6.28328 -11.6498
      vertex 14.0498 8.68328 -7.76656
    endloop
  endfacet
  facet normal 0.809017 0.309017 -0.5
    outer loop
      vertex 12.5666 6.28328 -11.6498
      vertex 16.4498 4.8 -6.28328
      vertex 14.9666 2.4 -10.1666
    endloop
  endfacet
  facet normal 0.309017 0.5 -0.809017
    outer loop
      vertex 4.8 6.28328 -16.4498
      vertex 6.28328 11.6498 -12.5666
      vertex 8.68328 7.76656 -14.0498
    endloop
  endfacet
  facet normal 0.309017 0.5 -0.809017
    outer loop
      vertex 6.28328 11.6498 -12.5666
      vertex 4.8 6.28328 -16.4498
      vertex 2.4 10.1666 -14.9666
    endloop
  endfacet
  facet normal 0.5 0.809017 -0.309017
    outer loop
      vertex 11.6498 12.5666 -6.28328
      vertex 6.28328 16.4498 -4.8
      vertex 10.1666 14.9666 -2.4
    endloop
  endfacet
  facet normal 0.5 0.809017 -0.309017
    outer loop
      vertex 6.28328 16.4498 -4.8
      vertex 11.6498 12.5666 -6.28328
      vertex 7.76656 14.0498 -8.68328
    endloop
  endfacet
  facet normal 0.309017 0.5 0.809017
    outer loop
      vertex 6.28328 11.6498 12.5666
      vertex 4.8 6.28328 16.4498
      vertex 8.68328 7.76656 14.0498
    endloop
  endfacet
  facet normal 0.309017 0.5 0.809017
    outer loop
      vertex 4.8 6.28328 16.4498
      vertex 6.28328 11.6498 12.5666
      vertex 2.4 10.1666 14.9666
    endloop
  endfacet
endsolid OpenSCAD_Model
