solid OpenSCAD_Model
  facet normal 0 -1 0
    outer loop
      vertex -0.8 -0.8 0.331371
      vertex 0.331371 -0.8 0.8
      vertex -0.331371 -0.8 0.8
    endloop
  endfacet
  facet normal 0 -1 0
    outer loop
      vertex -0.8 -0.8 0.331371
      vertex 0.8 -0.8 0.331371
      vertex 0.331371 -0.8 0.8
    endloop
  endfacet
  facet normal 0 -1 0
    outer loop
      vertex -0.8 -0.8 -0.331371
      vertex 0.8 -0.8 0.331371
      vertex -0.8 -0.8 0.331371
    endloop
  endfacet
  facet normal 0 -1 0
    outer loop
      vertex -0.8 -0.8 -0.331371
      vertex 0.8 -0.8 -0.331371
      vertex 0.8 -0.8 0.331371
    endloop
  endfacet
  facet normal 0 -1 0
    outer loop
      vertex -0.331371 -0.8 -0.8
      vertex 0.8 -0.8 -0.331371
      vertex -0.8 -0.8 -0.331371
    endloop
  endfacet
  facet normal 0 -1 0
    outer loop
      vertex 0.8 -0.8 -0.331371
      vertex -0.331371 -0.8 -0.8
      vertex 0.331371 -0.8 -0.8
    endloop
  endfacet
  facet normal 1 0 0
    outer loop
      vertex 0.8 0.331371 0.8
      vertex 0.8 0.8 -0.331371
      vertex 0.8 0.8 0.331371
    endloop
  endfacet
  facet normal 1 0 0
    outer loop
      vertex 0.8 0.331371 0.8
      vertex 0.8 0.331371 -0.8
      vertex 0.8 0.8 -0.331371
    endloop
  endfacet
  facet normal 1 -0 0
    outer loop
      vertex 0.8 -0.331371 0.8
      vertex 0.8 0.331371 -0.8
      vertex 0.8 0.331371 0.8
    endloop
  endfacet
  facet normal 1 0 0
    outer loop
      vertex 0.8 -0.331371 0.8
      vertex 0.8 -0.331371 -0.8
      vertex 0.8 0.331371 -0.8
    endloop
  endfacet
  facet normal 1 -0 0
    outer loop
      vertex 0.8 -0.8 0.331371
      vertex 0.8 -0.331371 -0.8
      vertex 0.8 -0.331371 0.8
    endloop
  endfacet
  facet normal 1 0 0
    outer loop
      vertex 0.8 -0.331371 -0.8
      vertex 0.8 -0.8 0.331371
      vertex 0.8 -0.8 -0.331371
    endloop
  endfacet
  facet normal 0 1 0
    outer loop
      vertex 0.8 0.8 0.331371
      vertex -0.331371 0.8 0.8
      vertex 0.331371 0.8 0.8
    endloop
  endfacet
  facet normal 0 1 0
    outer loop
      vertex 0.8 0.8 0.331371
      vertex -0.8 0.8 0.331371
      vertex -0.331371 0.8 0.8
    endloop
  endfacet
  facet normal 0 1 -0
    outer loop
      vertex 0.8 0.8 -0.331371
      vertex -0.8 0.8 0.331371
      vertex 0.8 0.8 0.331371
    endloop
  endfacet
  facet normal 0 1 0
    outer loop
      vertex 0.8 0.8 -0.331371
      vertex -0.8 0.8 -0.331371
      vertex -0.8 0.8 0.331371
    endloop
  endfacet
  facet normal 0 1 -0
    outer loop
      vertex 0.331371 0.8 -0.8
      vertex -0.8 0.8 -0.331371
      vertex 0.8 0.8 -0.331371
    endloop
  endfacet
  facet normal 0 1 0
    outer loop
      vertex -0.8 0.8 -0.331371
      vertex 0.331371 0.8 -0.8
      vertex -0.331371 0.8 -0.8
    endloop
  endfacet
  facet normal -1 0 0
    outer loop
      vertex -0.8 0.331371 -0.8
      vertex -0.8 0.8 0.331371
      vertex -0.8 0.8 -0.331371
    endloop
  endfacet
  facet normal -1 0 0
    outer loop
      vertex -0.8 0.331371 -0.8
      vertex -0.8 0.331371 0.8
      vertex -0.8 0.8 0.331371
    endloop
  endfacet
  facet normal -1 0 0
    outer loop
      vertex -0.8 -0.331371 -0.8
      vertex -0.8 0.331371 0.8
      vertex -0.8 0.331371 -0.8
    endloop
  endfacet
  facet normal -1 0 0
    outer loop
      vertex -0.8 -0.331371 -0.8
      vertex -0.8 -0.331371 0.8
      vertex -0.8 0.331371 0.8
    endloop
  endfacet
  facet normal -1 0 0
    outer loop
      vertex -0.8 -0.8 -0.331371
      vertex -0.8 -0.331371 0.8
      vertex -0.8 -0.331371 -0.8
    endloop
  endfacet
  facet normal -1 0 0
    outer loop
      vertex -0.8 -0.331371 0.8
      vertex -0.8 -0.8 -0.331371
      vertex -0.8 -0.8 0.331371
    endloop
  endfacet
  facet normal 0 0 1
    outer loop
      vertex 0.331371 0.8 0.8
      vertex 0.8 -0.331371 0.8
      vertex 0.8 0.331371 0.8
    endloop
  endfacet
  facet normal 0 0 1
    outer loop
      vertex 0.331371 0.8 0.8
      vertex 0.331371 -0.8 0.8
      vertex 0.8 -0.331371 0.8
    endloop
  endfacet
  facet normal -0 0 1
    outer loop
      vertex -0.331371 0.8 0.8
      vertex 0.331371 -0.8 0.8
      vertex 0.331371 0.8 0.8
    endloop
  endfacet
  facet normal 0 0 1
    outer loop
      vertex -0.331371 0.8 0.8
      vertex -0.331371 -0.8 0.8
      vertex 0.331371 -0.8 0.8
    endloop
  endfacet
  facet normal -0 0 1
    outer loop
      vertex -0.8 0.331371 0.8
      vertex -0.331371 -0.8 0.8
      vertex -0.331371 0.8 0.8
    endloop
  endfacet
  facet normal 0 0 1
    outer loop
      vertex -0.331371 -0.8 0.8
      vertex -0.8 0.331371 0.8
      vertex -0.8 -0.331371 0.8
    endloop
  endfacet
  facet normal 0 0 -1
    outer loop
      vertex 0.331371 -0.8 -0.8
      vertex 0.8 0.331371 -0.8
      vertex 0.8 -0.331371 -0.8
    endloop
  endfacet
  facet normal 0 0 -1
    outer loop
      vertex 0.331371 -0.8 -0.8
      vertex 0.331371 0.8 -0.8
      vertex 0.8 0.331371 -0.8
    endloop
  endfacet
  facet normal 0 0 -1
    outer loop
      vertex -0.331371 -0.8 -0.8
      vertex 0.331371 0.8 -0.8
      vertex 0.331371 -0.8 -0.8
    endloop
  endfacet
  facet normal 0 0 -1
    outer loop
      vertex -0.331371 -0.8 -0.8
      vertex -0.331371 0.8 -0.8
      vertex 0.331371 0.8 -0.8
    endloop
  endfacet
  facet normal 0 0 -1
    outer loop
      vertex -0.8 -0.331371 -0.8
      vertex -0.331371 0.8 -0.8
      vertex -0.331371 -0.8 -0.8
    endloop
  endfacet
  facet normal 0 0 -1
    outer loop
      vertex -0.331371 0.8 -0.8
      vertex -0.8 -0.331371 -0.8
      vertex -0.8 0.331371 -0.8
    endloop
  endfacet
  facet normal 0.57735 0.57735 0.57735
    outer loop
      vertex 0.331371 0.8 0.8
      vertex 0.8 0.331371 0.8
      vertex 0.8 0.8 0.331371
    endloop
  endfacet
  facet normal -0.57735 0.57735 0.57735
    outer loop
      vertex -0.8 0.331371 0.8
      vertex -0.331371 0.8 0.8
      vertex -0.8 0.8 0.331371
    endloop
  endfacet
  facet normal -0.57735 -0.57735 0.57735
    outer loop
      vertex -0.331371 -0.8 0.8
      vertex -0.8 -0.331371 0.8
      vertex -0.8 -0.8 0.331371
    endloop
  endfacet
  facet normal 0.57735 -0.57735 0.57735
    outer loop
      vertex 0.8 -0.8 0.331371
      vertex 0.8 -0.331371 0.8
      vertex 0.331371 -0.8 0.8
    endloop
  endfacet
  facet normal 0.57735 -0.57735 -0.57735
    outer loop
      vertex 0.331371 -0.8 -0.8
      vertex 0.8 -0.331371 -0.8
      vertex 0.8 -0.8 -0.331371
    endloop
  endfacet
  facet normal 0.57735 0.57735 -0.57735
    outer loop
      vertex 0.331371 0.8 -0.8
      vertex 0.8 0.8 -0.331371
      vertex 0.8 0.331371 -0.8
    endloop
  endfacet
  facet normal -0.57735 0.57735 -0.57735
    outer loop
      vertex -0.8 0.331371 -0.8
      vertex -0.8 0.8 -0.331371
      vertex -0.331371 0.8 -0.8
    endloop
  endfacet
  facet normal -0.57735 -0.57735 -0.57735
    outer loop
      vertex -0.331371 -0.8 -0.8
      vertex -0.8 -0.8 -0.331371
      vertex -0.8 -0.331371 -0.8
    endloop
  endfacet
endsolid OpenSCAD_Model
