solid OpenSCAD_Model
  facet normal 0.57735 0.57735 -0.57735
    outer loop
      vertex 0.282843 -0.282843 -0.282843
      vertex -0.282843 0.282843 -0.282843
      vertex 0.282843 0.282843 0.282843
    endloop
  endfacet
  facet normal 0.57735 -0.57735 0.57735
    outer loop
      vertex 0.282843 -0.282843 -0.282843
      vertex 0.282843 0.282843 0.282843
      vertex -0.282843 -0.282843 0.282843
    endloop
  endfacet
  facet normal -0.57735 -0.57735 -0.57735
    outer loop
      vertex -0.282843 -0.282843 0.282843
      vertex -0.282843 0.282843 -0.282843
      vertex 0.282843 -0.282843 -0.282843
    endloop
  endfacet
  facet normal -0.57735 0.57735 0.57735
    outer loop
      vertex 0.282843 0.282843 0.282843
      vertex -0.282843 0.282843 -0.282843
      vertex -0.282843 -0.282843 0.282843
    endloop
  endfacet
endsolid OpenSCAD_Model
