solid OpenSCAD_Model
  facet normal 0.57735 0.57735 -0.57735
    outer loop
      vertex 1.13137 0.565685 0
      vertex 0 1.13137 -0.565685
      vertex 0.565685 1.13137 0
    endloop
  endfacet
  facet normal 0.57735 0.57735 -0.57735
    outer loop
      vertex 1.13137 0.565685 0
      vertex 0 0.565685 -1.13137
      vertex 0 1.13137 -0.565685
    endloop
  endfacet
  facet normal 0.57735 0.57735 -0.57735
    outer loop
      vertex 1.13137 0 -0.565685
      vertex 0 0.565685 -1.13137
      vertex 1.13137 0.565685 0
    endloop
  endfacet
  facet normal 0.57735 0.57735 -0.57735
    outer loop
      vertex 0 0.565685 -1.13137
      vertex 1.13137 0 -0.565685
      vertex 0.565685 0 -1.13137
    endloop
  endfacet
  facet normal 0.57735 -0.57735 -0.57735
    outer loop
      vertex 0 -0.565685 -1.13137
      vertex 1.13137 0 -0.565685
      vertex 1.13137 -0.565685 0
    endloop
  endfacet
  facet normal 0.57735 -0.57735 -0.57735
    outer loop
      vertex 1.13137 0 -0.565685
      vertex 0 -0.565685 -1.13137
      vertex 0.565685 0 -1.13137
    endloop
  endfacet
  facet normal 0.57735 -0.57735 -0.57735
    outer loop
      vertex 0 -1.13137 -0.565685
      vertex 1.13137 -0.565685 0
      vertex 0.565685 -1.13137 0
    endloop
  endfacet
  facet normal 0.57735 -0.57735 -0.57735
    outer loop
      vertex 1.13137 -0.565685 0
      vertex 0 -1.13137 -0.565685
      vertex 0 -0.565685 -1.13137
    endloop
  endfacet
  facet normal -0.57735 -0.57735 -0.57735
    outer loop
      vertex 0 -0.565685 -1.13137
      vertex -1.13137 0 -0.565685
      vertex -0.565685 0 -1.13137
    endloop
  endfacet
  facet normal -0.57735 -0.57735 -0.57735
    outer loop
      vertex 0 -0.565685 -1.13137
      vertex -1.13137 -0.565685 0
      vertex -1.13137 0 -0.565685
    endloop
  endfacet
  facet normal -0.57735 -0.57735 -0.57735
    outer loop
      vertex 0 -1.13137 -0.565685
      vertex -1.13137 -0.565685 0
      vertex 0 -0.565685 -1.13137
    endloop
  endfacet
  facet normal -0.57735 -0.57735 -0.57735
    outer loop
      vertex -1.13137 -0.565685 0
      vertex 0 -1.13137 -0.565685
      vertex -0.565685 -1.13137 0
    endloop
  endfacet
  facet normal -0.57735 0.57735 -0.57735
    outer loop
      vertex -1.13137 0.565685 0
      vertex 0 1.13137 -0.565685
      vertex 0 0.565685 -1.13137
    endloop
  endfacet
  facet normal -0.57735 0.57735 -0.57735
    outer loop
      vertex 0 1.13137 -0.565685
      vertex -1.13137 0.565685 0
      vertex -0.565685 1.13137 0
    endloop
  endfacet
  facet normal -0.57735 0.57735 -0.57735
    outer loop
      vertex -1.13137 0 -0.565685
      vertex 0 0.565685 -1.13137
      vertex -0.565685 0 -1.13137
    endloop
  endfacet
  facet normal -0.57735 0.57735 -0.57735
    outer loop
      vertex 0 0.565685 -1.13137
      vertex -1.13137 0 -0.565685
      vertex -1.13137 0.565685 0
    endloop
  endfacet
  facet normal 0.57735 -0.57735 0.57735
    outer loop
      vertex 0 -0.565685 1.13137
      vertex 1.13137 0 0.565685
      vertex 0.565685 0 1.13137
    endloop
  endfacet
  facet normal 0.57735 -0.57735 0.57735
    outer loop
      vertex 0 -0.565685 1.13137
      vertex 1.13137 -0.565685 0
      vertex 1.13137 0 0.565685
    endloop
  endfacet
  facet normal 0.57735 -0.57735 0.57735
    outer loop
      vertex 0 -1.13137 0.565685
      vertex 1.13137 -0.565685 0
      vertex 0 -0.565685 1.13137
    endloop
  endfacet
  facet normal 0.57735 -0.57735 0.57735
    outer loop
      vertex 1.13137 -0.565685 0
      vertex 0 -1.13137 0.565685
      vertex 0.565685 -1.13137 0
    endloop
  endfacet
  facet normal -0.57735 -0.57735 0.57735
    outer loop
      vertex 0 -0.565685 1.13137
      vertex -1.13137 0 0.565685
      vertex -1.13137 -0.565685 0
    endloop
  endfacet
  facet normal -0.57735 -0.57735 0.57735
    outer loop
      vertex -1.13137 0 0.565685
      vertex 0 -0.565685 1.13137
      vertex -0.565685 0 1.13137
    endloop
  endfacet
  facet normal -0.57735 -0.57735 0.57735
    outer loop
      vertex 0 -1.13137 0.565685
      vertex -1.13137 -0.565685 0
      vertex -0.565685 -1.13137 0
    endloop
  endfacet
  facet normal -0.57735 -0.57735 0.57735
    outer loop
      vertex -1.13137 -0.565685 0
      vertex 0 -1.13137 0.565685
      vertex 0 -0.565685 1.13137
    endloop
  endfacet
  facet normal -0.57735 0.57735 0.57735
    outer loop
      vertex -1.13137 0.565685 0
      vertex 0 1.13137 0.565685
      vertex -0.565685 1.13137 0
    endloop
  endfacet
  facet normal -0.57735 0.57735 0.57735
    outer loop
      vertex -1.13137 0.565685 0
      vertex 0 0.565685 1.13137
      vertex 0 1.13137 0.565685
    endloop
  endfacet
  facet normal -0.57735 0.57735 0.57735
    outer loop
      vertex -1.13137 0 0.565685
      vertex 0 0.565685 1.13137
      vertex -1.13137 0.565685 0
    endloop
  endfacet
  facet normal -0.57735 0.57735 0.57735
    outer loop
      vertex 0 0.565685 1.13137
      vertex -1.13137 0 0.565685
      vertex -0.565685 0 1.13137
    endloop
  endfacet
  facet normal 0.57735 0.57735 0.57735
    outer loop
      vertex 1.13137 0.565685 0
      vertex 0 1.13137 0.565685
      vertex 0 0.565685 1.13137
    endloop
  endfacet
  facet normal 0.57735 0.57735 0.57735
    outer loop
      vertex 0 1.13137 0.565685
      vertex 1.13137 0.565685 0
      vertex 0.565685 1.13137 0
    endloop
  endfacet
  facet normal 0.57735 0.57735 0.57735
    outer loop
      vertex 1.13137 0 0.565685
      vertex 0 0.565685 1.13137
      vertex 0.565685 0 1.13137
    endloop
  endfacet
  facet normal 0.57735 0.57735 0.57735
    outer loop
      vertex 0 0.565685 1.13137
      vertex 1.13137 0 0.565685
      vertex 1.13137 0.565685 0
    endloop
  endfacet
  facet normal 0 0 1
    outer loop
      vertex 0 0.565685 1.13137
      vertex 0 -0.565685 1.13137
      vertex 0.565685 0 1.13137
    endloop
  endfacet
  facet normal 0 -0 1
    outer loop
      vertex 0 -0.565685 1.13137
      vertex 0 0.565685 1.13137
      vertex -0.565685 0 1.13137
    endloop
  endfacet
  facet normal -1 0 0
    outer loop
      vertex -1.13137 0 -0.565685
      vertex -1.13137 0 0.565685
      vertex -1.13137 0.565685 0
    endloop
  endfacet
  facet normal -1 0 -0
    outer loop
      vertex -1.13137 0 0.565685
      vertex -1.13137 0 -0.565685
      vertex -1.13137 -0.565685 0
    endloop
  endfacet
  facet normal 0 -1 0
    outer loop
      vertex -0.565685 -1.13137 0
      vertex 0.565685 -1.13137 0
      vertex 0 -1.13137 0.565685
    endloop
  endfacet
  facet normal -0 -1 0
    outer loop
      vertex 0.565685 -1.13137 0
      vertex -0.565685 -1.13137 0
      vertex 0 -1.13137 -0.565685
    endloop
  endfacet
  facet normal 1 0 0
    outer loop
      vertex 1.13137 0 0.565685
      vertex 1.13137 0 -0.565685
      vertex 1.13137 0.565685 0
    endloop
  endfacet
  facet normal 1 0 -0
    outer loop
      vertex 1.13137 0 -0.565685
      vertex 1.13137 0 0.565685
      vertex 1.13137 -0.565685 0
    endloop
  endfacet
  facet normal 0 1 0
    outer loop
      vertex 0.565685 1.13137 0
      vertex -0.565685 1.13137 0
      vertex 0 1.13137 0.565685
    endloop
  endfacet
  facet normal -0 1 0
    outer loop
      vertex -0.565685 1.13137 0
      vertex 0.565685 1.13137 0
      vertex 0 1.13137 -0.565685
    endloop
  endfacet
  facet normal 0 0 -1
    outer loop
      vertex 0 -0.565685 -1.13137
      vertex 0 0.565685 -1.13137
      vertex 0.565685 0 -1.13137
    endloop
  endfacet
  facet normal 0 -0 -1
    outer loop
      vertex 0 0.565685 -1.13137
      vertex 0 -0.565685 -1.13137
      vertex -0.565685 0 -1.13137
    endloop
  endfacet
endsolid OpenSCAD_Model
