solid OpenSCAD_Model
  facet normal -0 0 1
    outer loop
      vertex -0.4 0.4 0.965685
      vertex 0.4 -0.4 0.965685
      vertex 0.4 0.4 0.965685
    endloop
  endfacet
  facet normal 0 0 1
    outer loop
      vertex 0.4 -0.4 0.965685
      vertex -0.4 0.4 0.965685
      vertex -0.4 -0.4 0.965685
    endloop
  endfacet
  facet normal -0.707107 0 0.707107
    outer loop
      vertex -0.965685 -0.4 0.4
      vertex -0.4 0.4 0.965685
      vertex -0.965685 0.4 0.4
    endloop
  endfacet
  facet normal -0.707107 0 0.707107
    outer loop
      vertex -0.4 0.4 0.965685
      vertex -0.965685 -0.4 0.4
      vertex -0.4 -0.4 0.965685
    endloop
  endfacet
  facet normal 0 -0.707107 0.707107
    outer loop
      vertex -0.4 -0.965685 0.4
      vertex 0.4 -0.4 0.965685
      vertex -0.4 -0.4 0.965685
    endloop
  endfacet
  facet normal 0 -0.707107 0.707107
    outer loop
      vertex 0.4 -0.4 0.965685
      vertex -0.4 -0.965685 0.4
      vertex 0.4 -0.965685 0.4
    endloop
  endfacet
  facet normal 0.707107 -0 0.707107
    outer loop
      vertex 0.4 -0.4 0.965685
      vertex 0.965685 0.4 0.4
      vertex 0.4 0.4 0.965685
    endloop
  endfacet
  facet normal 0.707107 0 0.707107
    outer loop
      vertex 0.965685 0.4 0.4
      vertex 0.4 -0.4 0.965685
      vertex 0.965685 -0.4 0.4
    endloop
  endfacet
  facet normal 0 0.707107 0.707107
    outer loop
      vertex 0.4 0.965685 0.4
      vertex -0.4 0.4 0.965685
      vertex 0.4 0.4 0.965685
    endloop
  endfacet
  facet normal 0 0.707107 0.707107
    outer loop
      vertex -0.4 0.4 0.965685
      vertex 0.4 0.965685 0.4
      vertex -0.4 0.965685 0.4
    endloop
  endfacet
  facet normal 0.707107 0.707107 0
    outer loop
      vertex 0.965685 0.4 0.4
      vertex 0.4 0.965685 -0.4
      vertex 0.4 0.965685 0.4
    endloop
  endfacet
  facet normal 0.707107 0.707107 0
    outer loop
      vertex 0.4 0.965685 -0.4
      vertex 0.965685 0.4 0.4
      vertex 0.965685 0.4 -0.4
    endloop
  endfacet
  facet normal 0 1 -0
    outer loop
      vertex 0.4 0.965685 -0.4
      vertex -0.4 0.965685 0.4
      vertex 0.4 0.965685 0.4
    endloop
  endfacet
  facet normal 0 1 0
    outer loop
      vertex -0.4 0.965685 0.4
      vertex 0.4 0.965685 -0.4
      vertex -0.4 0.965685 -0.4
    endloop
  endfacet
  facet normal -0.707107 0.707107 0
    outer loop
      vertex -0.965685 0.4 -0.4
      vertex -0.4 0.965685 0.4
      vertex -0.4 0.965685 -0.4
    endloop
  endfacet
  facet normal -0.707107 0.707107 0
    outer loop
      vertex -0.4 0.965685 0.4
      vertex -0.965685 0.4 -0.4
      vertex -0.965685 0.4 0.4
    endloop
  endfacet
  facet normal -1 0 0
    outer loop
      vertex -0.965685 -0.4 -0.4
      vertex -0.965685 0.4 0.4
      vertex -0.965685 0.4 -0.4
    endloop
  endfacet
  facet normal -1 -0 0
    outer loop
      vertex -0.965685 0.4 0.4
      vertex -0.965685 -0.4 -0.4
      vertex -0.965685 -0.4 0.4
    endloop
  endfacet
  facet normal -0.707107 -0.707107 0
    outer loop
      vertex -0.4 -0.965685 -0.4
      vertex -0.965685 -0.4 0.4
      vertex -0.965685 -0.4 -0.4
    endloop
  endfacet
  facet normal -0.707107 -0.707107 0
    outer loop
      vertex -0.965685 -0.4 0.4
      vertex -0.4 -0.965685 -0.4
      vertex -0.4 -0.965685 0.4
    endloop
  endfacet
  facet normal 0 -1 0
    outer loop
      vertex -0.4 -0.965685 -0.4
      vertex 0.4 -0.965685 0.4
      vertex -0.4 -0.965685 0.4
    endloop
  endfacet
  facet normal 0 -1 -0
    outer loop
      vertex 0.4 -0.965685 0.4
      vertex -0.4 -0.965685 -0.4
      vertex 0.4 -0.965685 -0.4
    endloop
  endfacet
  facet normal 0.707107 -0.707107 0
    outer loop
      vertex 0.4 -0.965685 0.4
      vertex 0.965685 -0.4 -0.4
      vertex 0.965685 -0.4 0.4
    endloop
  endfacet
  facet normal 0.707107 -0.707107 0
    outer loop
      vertex 0.965685 -0.4 -0.4
      vertex 0.4 -0.965685 0.4
      vertex 0.4 -0.965685 -0.4
    endloop
  endfacet
  facet normal 1 -0 0
    outer loop
      vertex 0.965685 -0.4 0.4
      vertex 0.965685 0.4 -0.4
      vertex 0.965685 0.4 0.4
    endloop
  endfacet
  facet normal 1 0 0
    outer loop
      vertex 0.965685 0.4 -0.4
      vertex 0.965685 -0.4 0.4
      vertex 0.965685 -0.4 -0.4
    endloop
  endfacet
  facet normal 0.707107 0 -0.707107
    outer loop
      vertex 0.965685 -0.4 -0.4
      vertex 0.4 0.4 -0.965685
      vertex 0.965685 0.4 -0.4
    endloop
  endfacet
  facet normal 0.707107 0 -0.707107
    outer loop
      vertex 0.4 0.4 -0.965685
      vertex 0.965685 -0.4 -0.4
      vertex 0.4 -0.4 -0.965685
    endloop
  endfacet
  facet normal 0 0.707107 -0.707107
    outer loop
      vertex 0.4 0.4 -0.965685
      vertex -0.4 0.965685 -0.4
      vertex 0.4 0.965685 -0.4
    endloop
  endfacet
  facet normal 0 0.707107 -0.707107
    outer loop
      vertex -0.4 0.965685 -0.4
      vertex 0.4 0.4 -0.965685
      vertex -0.4 0.4 -0.965685
    endloop
  endfacet
  facet normal -0.707107 0 -0.707107
    outer loop
      vertex -0.4 -0.4 -0.965685
      vertex -0.965685 0.4 -0.4
      vertex -0.4 0.4 -0.965685
    endloop
  endfacet
  facet normal -0.707107 -0 -0.707107
    outer loop
      vertex -0.965685 0.4 -0.4
      vertex -0.4 -0.4 -0.965685
      vertex -0.965685 -0.4 -0.4
    endloop
  endfacet
  facet normal 0 -0.707107 -0.707107
    outer loop
      vertex -0.4 -0.4 -0.965685
      vertex 0.4 -0.965685 -0.4
      vertex -0.4 -0.965685 -0.4
    endloop
  endfacet
  facet normal 0 -0.707107 -0.707107
    outer loop
      vertex 0.4 -0.965685 -0.4
      vertex -0.4 -0.4 -0.965685
      vertex 0.4 -0.4 -0.965685
    endloop
  endfacet
  facet normal 0 0 -1
    outer loop
      vertex -0.4 -0.4 -0.965685
      vertex 0.4 0.4 -0.965685
      vertex 0.4 -0.4 -0.965685
    endloop
  endfacet
  facet normal -0 0 -1
    outer loop
      vertex 0.4 0.4 -0.965685
      vertex -0.4 -0.4 -0.965685
      vertex -0.4 0.4 -0.965685
    endloop
  endfacet
  facet normal 0.57735 -0.57735 0.57735
    outer loop
      vertex 0.965685 -0.4 0.4
      vertex 0.4 -0.4 0.965685
      vertex 0.4 -0.965685 0.4
    endloop
  endfacet
  facet normal 0.57735 0.57735 0.57735
    outer loop
      vertex 0.4 0.965685 0.4
      vertex 0.4 0.4 0.965685
      vertex 0.965685 0.4 0.4
    endloop
  endfacet
  facet normal -0.57735 0.57735 0.57735
    outer loop
      vertex -0.965685 0.4 0.4
      vertex -0.4 0.4 0.965685
      vertex -0.4 0.965685 0.4
    endloop
  endfacet
  facet normal -0.57735 -0.57735 0.57735
    outer loop
      vertex -0.4 -0.965685 0.4
      vertex -0.4 -0.4 0.965685
      vertex -0.965685 -0.4 0.4
    endloop
  endfacet
  facet normal 0.57735 -0.57735 -0.57735
    outer loop
      vertex 0.965685 -0.4 -0.4
      vertex 0.4 -0.965685 -0.4
      vertex 0.4 -0.4 -0.965685
    endloop
  endfacet
  facet normal 0.57735 0.57735 -0.57735
    outer loop
      vertex 0.4 0.965685 -0.4
      vertex 0.965685 0.4 -0.4
      vertex 0.4 0.4 -0.965685
    endloop
  endfacet
  facet normal -0.57735 0.57735 -0.57735
    outer loop
      vertex -0.965685 0.4 -0.4
      vertex -0.4 0.965685 -0.4
      vertex -0.4 0.4 -0.965685
    endloop
  endfacet
  facet normal -0.57735 -0.57735 -0.57735
    outer loop
      vertex -0.4 -0.965685 -0.4
      vertex -0.965685 -0.4 -0.4
      vertex -0.4 -0.4 -0.965685
    endloop
  endfacet
endsolid OpenSCAD_Model
