solid OpenSCAD_Model
  facet normal -0.57735 0.57735 0.57735
    outer loop
      vertex -0.707107 0 0
      vertex 0 0 0.707107
      vertex 0 0.707107 0
    endloop
  endfacet
  facet normal -0.57735 -0.57735 0.57735
    outer loop
      vertex 0 -0.707107 0
      vertex 0 0 0.707107
      vertex -0.707107 0 0
    endloop
  endfacet
  facet normal 0.57735 -0.57735 0.57735
    outer loop
      vertex 0.707107 0 0
      vertex 0 0 0.707107
      vertex 0 -0.707107 0
    endloop
  endfacet
  facet normal 0.57735 0.57735 0.57735
    outer loop
      vertex 0 0.707107 0
      vertex 0 0 0.707107
      vertex 0.707107 0 0
    endloop
  endfacet
  facet normal 0.57735 0.57735 -0.57735
    outer loop
      vertex 0 0.707107 0
      vertex 0.707107 0 0
      vertex 0 0 -0.707107
    endloop
  endfacet
  facet normal -0.57735 0.57735 -0.57735
    outer loop
      vertex -0.707107 0 0
      vertex 0 0.707107 0
      vertex 0 0 -0.707107
    endloop
  endfacet
  facet normal -0.57735 -0.57735 -0.57735
    outer loop
      vertex 0 -0.707107 0
      vertex -0.707107 0 0
      vertex 0 0 -0.707107
    endloop
  endfacet
  facet normal 0.57735 -0.57735 -0.57735
    outer loop
      vertex 0.707107 0 0
      vertex 0 -0.707107 0
      vertex 0 0 -0.707107
    endloop
  endfacet
endsolid OpenSCAD_Model
