solid OpenSCAD_Model
  facet normal 0.57735 0.57735 -0.57735
    outer loop
      vertex 8.48528 -8.48528 -8.48528
      vertex -8.48528 8.48528 -8.48528
      vertex 8.48528 8.48528 8.48528
    endloop
  endfacet
  facet normal 0.57735 -0.57735 0.57735
    outer loop
      vertex 8.48528 -8.48528 -8.48528
      vertex 8.48528 8.48528 8.48528
      vertex -8.48528 -8.48528 8.48528
    endloop
  endfacet
  facet normal -0.57735 -0.57735 -0.57735
    outer loop
      vertex -8.48528 -8.48528 8.48528
      vertex -8.48528 8.48528 -8.48528
      vertex 8.48528 -8.48528 -8.48528
    endloop
  endfacet
  facet normal -0.57735 0.57735 0.57735
    outer loop
      vertex 8.48528 8.48528 8.48528
      vertex -8.48528 8.48528 -8.48528
      vertex -8.48528 -8.48528 8.48528
    endloop
  endfacet
endsolid OpenSCAD_Model
