solid OpenSCAD_Model
  facet normal 0.525731 -1.56654e-07 0.850651
    outer loop
      vertex 0.5 0.5 3.73607
      vertex 3.11803 0.5 2.11803
      vertex 2.61803 1.30902 2.42705
    endloop
  endfacet
  facet normal 0.525731 0 0.850651
    outer loop
      vertex 3.11803 0.5 2.11803
      vertex 0.5 0.5 3.73607
      vertex 3.11803 -0.5 2.11803
    endloop
  endfacet
  facet normal 0.525731 0 0.850651
    outer loop
      vertex 1 1.30902 3.42705
      vertex 2.61803 1.30902 2.42705
      vertex 1.80902 1.61803 2.92705
    endloop
  endfacet
  facet normal 0.525731 -0 0.850651
    outer loop
      vertex 0.5 -0.5 3.73607
      vertex 3.11803 -0.5 2.11803
      vertex 0.5 0.5 3.73607
    endloop
  endfacet
  facet normal 0.525731 -7.46843e-08 0.850651
    outer loop
      vertex 2.61803 1.30902 2.42705
      vertex 1 1.30902 3.42705
      vertex 0.5 0.5 3.73607
    endloop
  endfacet
  facet normal 0.525731 1.56654e-07 0.850651
    outer loop
      vertex 3.11803 -0.5 2.11803
      vertex 0.5 -0.5 3.73607
      vertex 2.61803 -1.30902 2.42705
    endloop
  endfacet
  facet normal 0.525731 7.46843e-08 0.850651
    outer loop
      vertex 1 -1.30902 3.42705
      vertex 2.61803 -1.30902 2.42705
      vertex 0.5 -0.5 3.73607
    endloop
  endfacet
  facet normal 0.525731 0 0.850651
    outer loop
      vertex 2.61803 -1.30902 2.42705
      vertex 1 -1.30902 3.42705
      vertex 1.80902 -1.61803 2.92705
    endloop
  endfacet
  facet normal -0.525731 -9.40346e-08 0.850651
    outer loop
      vertex -3.11803 0.5 2.11803
      vertex -0.5 0.5 3.73607
      vertex -1 1.30902 3.42705
    endloop
  endfacet
  facet normal -0.525731 0 0.850651
    outer loop
      vertex -0.5 0.5 3.73607
      vertex -3.11803 0.5 2.11803
      vertex -0.5 -0.5 3.73607
    endloop
  endfacet
  facet normal -0.525731 0 0.850651
    outer loop
      vertex -2.61803 1.30902 2.42705
      vertex -1 1.30902 3.42705
      vertex -1.80902 1.61803 2.92705
    endloop
  endfacet
  facet normal -0.525731 0 0.850651
    outer loop
      vertex -3.11803 -0.5 2.11803
      vertex -0.5 -0.5 3.73607
      vertex -3.11803 0.5 2.11803
    endloop
  endfacet
  facet normal -0.525731 -1.76004e-07 0.850651
    outer loop
      vertex -1 1.30902 3.42705
      vertex -2.61803 1.30902 2.42705
      vertex -3.11803 0.5 2.11803
    endloop
  endfacet
  facet normal -0.525731 9.40346e-08 0.850651
    outer loop
      vertex -0.5 -0.5 3.73607
      vertex -3.11803 -0.5 2.11803
      vertex -1 -1.30902 3.42705
    endloop
  endfacet
  facet normal -0.525731 1.76004e-07 0.850651
    outer loop
      vertex -2.61803 -1.30902 2.42705
      vertex -1 -1.30902 3.42705
      vertex -3.11803 -0.5 2.11803
    endloop
  endfacet
  facet normal -0.525731 0 0.850651
    outer loop
      vertex -1 -1.30902 3.42705
      vertex -2.61803 -1.30902 2.42705
      vertex -1.80902 -1.61803 2.92705
    endloop
  endfacet
  facet normal 1.56654e-07 -0.850651 0.525731
    outer loop
      vertex -0.5 -3.73607 0.5
      vertex -0.5 -2.11803 3.11803
      vertex -1.30902 -2.42705 2.61803
    endloop
  endfacet
  facet normal 0 -0.850651 0.525731
    outer loop
      vertex -0.5 -2.11803 3.11803
      vertex -0.5 -3.73607 0.5
      vertex 0.5 -2.11803 3.11803
    endloop
  endfacet
  facet normal 0 -0.850651 0.525731
    outer loop
      vertex -1.30902 -3.42705 1
      vertex -1.30902 -2.42705 2.61803
      vertex -1.61803 -2.92705 1.80902
    endloop
  endfacet
  facet normal 0 -0.850651 0.525731
    outer loop
      vertex 0.5 -3.73607 0.5
      vertex 0.5 -2.11803 3.11803
      vertex -0.5 -3.73607 0.5
    endloop
  endfacet
  facet normal 7.46843e-08 -0.850651 0.525731
    outer loop
      vertex -1.30902 -2.42705 2.61803
      vertex -1.30902 -3.42705 1
      vertex -0.5 -3.73607 0.5
    endloop
  endfacet
  facet normal -1.56654e-07 -0.850651 0.525731
    outer loop
      vertex 0.5 -2.11803 3.11803
      vertex 0.5 -3.73607 0.5
      vertex 1.30902 -2.42705 2.61803
    endloop
  endfacet
  facet normal -7.46843e-08 -0.850651 0.525731
    outer loop
      vertex 1.30902 -3.42705 1
      vertex 1.30902 -2.42705 2.61803
      vertex 0.5 -3.73607 0.5
    endloop
  endfacet
  facet normal 0 -0.850651 0.525731
    outer loop
      vertex 1.30902 -2.42705 2.61803
      vertex 1.30902 -3.42705 1
      vertex 1.61803 -2.92705 1.80902
    endloop
  endfacet
  facet normal 0.850651 -0.525731 -9.40346e-08
    outer loop
      vertex 2.11803 -3.11803 0.5
      vertex 3.73607 -0.5 0.5
      vertex 3.42705 -1 1.30902
    endloop
  endfacet
  facet normal 0.850651 -0.525731 0
    outer loop
      vertex 3.73607 -0.5 0.5
      vertex 2.11803 -3.11803 0.5
      vertex 3.73607 -0.5 -0.5
    endloop
  endfacet
  facet normal 0.850651 -0.525731 0
    outer loop
      vertex 2.42705 -2.61803 1.30902
      vertex 3.42705 -1 1.30902
      vertex 2.92705 -1.80902 1.61803
    endloop
  endfacet
  facet normal 0.850651 -0.525731 0
    outer loop
      vertex 2.11803 -3.11803 -0.5
      vertex 3.73607 -0.5 -0.5
      vertex 2.11803 -3.11803 0.5
    endloop
  endfacet
  facet normal 0.850651 -0.525731 -1.76004e-07
    outer loop
      vertex 3.42705 -1 1.30902
      vertex 2.42705 -2.61803 1.30902
      vertex 2.11803 -3.11803 0.5
    endloop
  endfacet
  facet normal 0.850651 -0.525731 9.40346e-08
    outer loop
      vertex 3.73607 -0.5 -0.5
      vertex 2.11803 -3.11803 -0.5
      vertex 3.42705 -1 -1.30902
    endloop
  endfacet
  facet normal 0.850651 -0.525731 1.76004e-07
    outer loop
      vertex 2.42705 -2.61803 -1.30902
      vertex 3.42705 -1 -1.30902
      vertex 2.11803 -3.11803 -0.5
    endloop
  endfacet
  facet normal 0.850651 -0.525731 0
    outer loop
      vertex 3.42705 -1 -1.30902
      vertex 2.42705 -2.61803 -1.30902
      vertex 2.92705 -1.80902 -1.61803
    endloop
  endfacet
  facet normal 0.850651 0.525731 -1.56654e-07
    outer loop
      vertex 3.73607 0.5 0.5
      vertex 2.11803 3.11803 0.5
      vertex 2.42705 2.61803 1.30902
    endloop
  endfacet
  facet normal 0.850651 0.525731 0
    outer loop
      vertex 2.11803 3.11803 0.5
      vertex 3.73607 0.5 0.5
      vertex 2.11803 3.11803 -0.5
    endloop
  endfacet
  facet normal 0.850651 0.525731 0
    outer loop
      vertex 3.42705 1 1.30902
      vertex 2.42705 2.61803 1.30902
      vertex 2.92705 1.80902 1.61803
    endloop
  endfacet
  facet normal 0.850651 0.525731 -0
    outer loop
      vertex 3.73607 0.5 -0.5
      vertex 2.11803 3.11803 -0.5
      vertex 3.73607 0.5 0.5
    endloop
  endfacet
  facet normal 0.850651 0.525731 -7.46843e-08
    outer loop
      vertex 2.42705 2.61803 1.30902
      vertex 3.42705 1 1.30902
      vertex 3.73607 0.5 0.5
    endloop
  endfacet
  facet normal 0.850651 0.525731 1.56654e-07
    outer loop
      vertex 2.11803 3.11803 -0.5
      vertex 3.73607 0.5 -0.5
      vertex 2.42705 2.61803 -1.30902
    endloop
  endfacet
  facet normal 0.850651 0.525731 7.46843e-08
    outer loop
      vertex 3.42705 1 -1.30902
      vertex 2.42705 2.61803 -1.30902
      vertex 3.73607 0.5 -0.5
    endloop
  endfacet
  facet normal 0.850651 0.525731 0
    outer loop
      vertex 2.42705 2.61803 -1.30902
      vertex 3.42705 1 -1.30902
      vertex 2.92705 1.80902 -1.61803
    endloop
  endfacet
  facet normal -0.850651 -0.525731 9.40346e-08
    outer loop
      vertex -2.11803 -3.11803 -0.5
      vertex -3.73607 -0.5 -0.5
      vertex -3.42705 -1 -1.30902
    endloop
  endfacet
  facet normal -0.850651 -0.525731 0
    outer loop
      vertex -3.73607 -0.5 -0.5
      vertex -2.11803 -3.11803 -0.5
      vertex -3.73607 -0.5 0.5
    endloop
  endfacet
  facet normal -0.850651 -0.525731 0
    outer loop
      vertex -2.42705 -2.61803 -1.30902
      vertex -3.42705 -1 -1.30902
      vertex -2.92705 -1.80902 -1.61803
    endloop
  endfacet
  facet normal -0.850651 -0.525731 -0
    outer loop
      vertex -2.11803 -3.11803 0.5
      vertex -3.73607 -0.5 0.5
      vertex -2.11803 -3.11803 -0.5
    endloop
  endfacet
  facet normal -0.850651 -0.525731 1.76004e-07
    outer loop
      vertex -3.42705 -1 -1.30902
      vertex -2.42705 -2.61803 -1.30902
      vertex -2.11803 -3.11803 -0.5
    endloop
  endfacet
  facet normal -0.850651 -0.525731 -9.40346e-08
    outer loop
      vertex -3.73607 -0.5 0.5
      vertex -2.11803 -3.11803 0.5
      vertex -3.42705 -1 1.30902
    endloop
  endfacet
  facet normal -0.850651 -0.525731 -1.76004e-07
    outer loop
      vertex -2.42705 -2.61803 1.30902
      vertex -3.42705 -1 1.30902
      vertex -2.11803 -3.11803 0.5
    endloop
  endfacet
  facet normal -0.850651 -0.525731 0
    outer loop
      vertex -3.42705 -1 1.30902
      vertex -2.42705 -2.61803 1.30902
      vertex -2.92705 -1.80902 1.61803
    endloop
  endfacet
  facet normal -0.850651 0.525731 1.56654e-07
    outer loop
      vertex -3.73607 0.5 -0.5
      vertex -2.11803 3.11803 -0.5
      vertex -2.42705 2.61803 -1.30902
    endloop
  endfacet
  facet normal -0.850651 0.525731 0
    outer loop
      vertex -2.11803 3.11803 -0.5
      vertex -3.73607 0.5 -0.5
      vertex -2.11803 3.11803 0.5
    endloop
  endfacet
  facet normal -0.850651 0.525731 0
    outer loop
      vertex -3.42705 1 -1.30902
      vertex -2.42705 2.61803 -1.30902
      vertex -2.92705 1.80902 -1.61803
    endloop
  endfacet
  facet normal -0.850651 0.525731 0
    outer loop
      vertex -3.73607 0.5 0.5
      vertex -2.11803 3.11803 0.5
      vertex -3.73607 0.5 -0.5
    endloop
  endfacet
  facet normal -0.850651 0.525731 7.46843e-08
    outer loop
      vertex -2.42705 2.61803 -1.30902
      vertex -3.42705 1 -1.30902
      vertex -3.73607 0.5 -0.5
    endloop
  endfacet
  facet normal -0.850651 0.525731 -1.56654e-07
    outer loop
      vertex -2.11803 3.11803 0.5
      vertex -3.73607 0.5 0.5
      vertex -2.42705 2.61803 1.30902
    endloop
  endfacet
  facet normal -0.850651 0.525731 -7.46843e-08
    outer loop
      vertex -3.42705 1 1.30902
      vertex -2.42705 2.61803 1.30902
      vertex -3.73607 0.5 0.5
    endloop
  endfacet
  facet normal -0.850651 0.525731 0
    outer loop
      vertex -2.42705 2.61803 1.30902
      vertex -3.42705 1 1.30902
      vertex -2.92705 1.80902 1.61803
    endloop
  endfacet
  facet normal -1.56654e-07 0.850651 0.525731
    outer loop
      vertex 0.5 3.73607 0.5
      vertex 0.5 2.11803 3.11803
      vertex 1.30902 2.42705 2.61803
    endloop
  endfacet
  facet normal 0 0.850651 0.525731
    outer loop
      vertex 0.5 2.11803 3.11803
      vertex 0.5 3.73607 0.5
      vertex -0.5 2.11803 3.11803
    endloop
  endfacet
  facet normal 0 0.850651 0.525731
    outer loop
      vertex 1.30902 3.42705 1
      vertex 1.30902 2.42705 2.61803
      vertex 1.61803 2.92705 1.80902
    endloop
  endfacet
  facet normal -0 0.850651 0.525731
    outer loop
      vertex -0.5 3.73607 0.5
      vertex -0.5 2.11803 3.11803
      vertex 0.5 3.73607 0.5
    endloop
  endfacet
  facet normal -7.46843e-08 0.850651 0.525731
    outer loop
      vertex 1.30902 2.42705 2.61803
      vertex 1.30902 3.42705 1
      vertex 0.5 3.73607 0.5
    endloop
  endfacet
  facet normal 1.56654e-07 0.850651 0.525731
    outer loop
      vertex -0.5 2.11803 3.11803
      vertex -0.5 3.73607 0.5
      vertex -1.30902 2.42705 2.61803
    endloop
  endfacet
  facet normal 7.46843e-08 0.850651 0.525731
    outer loop
      vertex -1.30902 3.42705 1
      vertex -1.30902 2.42705 2.61803
      vertex -0.5 3.73607 0.5
    endloop
  endfacet
  facet normal 0 0.850651 0.525731
    outer loop
      vertex -1.30902 2.42705 2.61803
      vertex -1.30902 3.42705 1
      vertex -1.61803 2.92705 1.80902
    endloop
  endfacet
  facet normal 9.40346e-08 -0.850651 -0.525731
    outer loop
      vertex -0.5 -2.11803 -3.11803
      vertex -0.5 -3.73607 -0.5
      vertex -1.30902 -3.42705 -1
    endloop
  endfacet
  facet normal 0 -0.850651 -0.525731
    outer loop
      vertex -0.5 -3.73607 -0.5
      vertex -0.5 -2.11803 -3.11803
      vertex 0.5 -3.73607 -0.5
    endloop
  endfacet
  facet normal 0 -0.850651 -0.525731
    outer loop
      vertex -1.30902 -2.42705 -2.61803
      vertex -1.30902 -3.42705 -1
      vertex -1.61803 -2.92705 -1.80902
    endloop
  endfacet
  facet normal -0 -0.850651 -0.525731
    outer loop
      vertex 0.5 -2.11803 -3.11803
      vertex 0.5 -3.73607 -0.5
      vertex -0.5 -2.11803 -3.11803
    endloop
  endfacet
  facet normal 1.76004e-07 -0.850651 -0.525731
    outer loop
      vertex -1.30902 -3.42705 -1
      vertex -1.30902 -2.42705 -2.61803
      vertex -0.5 -2.11803 -3.11803
    endloop
  endfacet
  facet normal -9.40346e-08 -0.850651 -0.525731
    outer loop
      vertex 0.5 -3.73607 -0.5
      vertex 0.5 -2.11803 -3.11803
      vertex 1.30902 -3.42705 -1
    endloop
  endfacet
  facet normal -1.76004e-07 -0.850651 -0.525731
    outer loop
      vertex 1.30902 -2.42705 -2.61803
      vertex 1.30902 -3.42705 -1
      vertex 0.5 -2.11803 -3.11803
    endloop
  endfacet
  facet normal 0 -0.850651 -0.525731
    outer loop
      vertex 1.30902 -3.42705 -1
      vertex 1.30902 -2.42705 -2.61803
      vertex 1.61803 -2.92705 -1.80902
    endloop
  endfacet
  facet normal 0.525731 1.56654e-07 -0.850651
    outer loop
      vertex 0.5 -0.5 -3.73607
      vertex 3.11803 -0.5 -2.11803
      vertex 2.61803 -1.30902 -2.42705
    endloop
  endfacet
  facet normal 0.525731 0 -0.850651
    outer loop
      vertex 3.11803 -0.5 -2.11803
      vertex 0.5 -0.5 -3.73607
      vertex 3.11803 0.5 -2.11803
    endloop
  endfacet
  facet normal 0.525731 0 -0.850651
    outer loop
      vertex 1 -1.30902 -3.42705
      vertex 2.61803 -1.30902 -2.42705
      vertex 1.80902 -1.61803 -2.92705
    endloop
  endfacet
  facet normal 0.525731 0 -0.850651
    outer loop
      vertex 0.5 0.5 -3.73607
      vertex 3.11803 0.5 -2.11803
      vertex 0.5 -0.5 -3.73607
    endloop
  endfacet
  facet normal 0.525731 7.46843e-08 -0.850651
    outer loop
      vertex 2.61803 -1.30902 -2.42705
      vertex 1 -1.30902 -3.42705
      vertex 0.5 -0.5 -3.73607
    endloop
  endfacet
  facet normal 0.525731 -1.56654e-07 -0.850651
    outer loop
      vertex 3.11803 0.5 -2.11803
      vertex 0.5 0.5 -3.73607
      vertex 2.61803 1.30902 -2.42705
    endloop
  endfacet
  facet normal 0.525731 -7.46843e-08 -0.850651
    outer loop
      vertex 1 1.30902 -3.42705
      vertex 2.61803 1.30902 -2.42705
      vertex 0.5 0.5 -3.73607
    endloop
  endfacet
  facet normal 0.525731 0 -0.850651
    outer loop
      vertex 2.61803 1.30902 -2.42705
      vertex 1 1.30902 -3.42705
      vertex 1.80902 1.61803 -2.92705
    endloop
  endfacet
  facet normal -0.525731 9.40346e-08 -0.850651
    outer loop
      vertex -3.11803 -0.5 -2.11803
      vertex -0.5 -0.5 -3.73607
      vertex -1 -1.30902 -3.42705
    endloop
  endfacet
  facet normal -0.525731 0 -0.850651
    outer loop
      vertex -0.5 -0.5 -3.73607
      vertex -3.11803 -0.5 -2.11803
      vertex -0.5 0.5 -3.73607
    endloop
  endfacet
  facet normal -0.525731 0 -0.850651
    outer loop
      vertex -2.61803 -1.30902 -2.42705
      vertex -1 -1.30902 -3.42705
      vertex -1.80902 -1.61803 -2.92705
    endloop
  endfacet
  facet normal -0.525731 -0 -0.850651
    outer loop
      vertex -3.11803 0.5 -2.11803
      vertex -0.5 0.5 -3.73607
      vertex -3.11803 -0.5 -2.11803
    endloop
  endfacet
  facet normal -0.525731 1.76004e-07 -0.850651
    outer loop
      vertex -1 -1.30902 -3.42705
      vertex -2.61803 -1.30902 -2.42705
      vertex -3.11803 -0.5 -2.11803
    endloop
  endfacet
  facet normal -0.525731 -9.40346e-08 -0.850651
    outer loop
      vertex -0.5 0.5 -3.73607
      vertex -3.11803 0.5 -2.11803
      vertex -1 1.30902 -3.42705
    endloop
  endfacet
  facet normal -0.525731 -1.76004e-07 -0.850651
    outer loop
      vertex -2.61803 1.30902 -2.42705
      vertex -1 1.30902 -3.42705
      vertex -3.11803 0.5 -2.11803
    endloop
  endfacet
  facet normal -0.525731 0 -0.850651
    outer loop
      vertex -1 1.30902 -3.42705
      vertex -2.61803 1.30902 -2.42705
      vertex -1.80902 1.61803 -2.92705
    endloop
  endfacet
  facet normal -9.40346e-08 0.850651 -0.525731
    outer loop
      vertex 0.5 2.11803 -3.11803
      vertex 0.5 3.73607 -0.5
      vertex 1.30902 3.42705 -1
    endloop
  endfacet
  facet normal 0 0.850651 -0.525731
    outer loop
      vertex 0.5 3.73607 -0.5
      vertex 0.5 2.11803 -3.11803
      vertex -0.5 3.73607 -0.5
    endloop
  endfacet
  facet normal 0 0.850651 -0.525731
    outer loop
      vertex 1.30902 2.42705 -2.61803
      vertex 1.30902 3.42705 -1
      vertex 1.61803 2.92705 -1.80902
    endloop
  endfacet
  facet normal 0 0.850651 -0.525731
    outer loop
      vertex -0.5 2.11803 -3.11803
      vertex -0.5 3.73607 -0.5
      vertex 0.5 2.11803 -3.11803
    endloop
  endfacet
  facet normal -1.76004e-07 0.850651 -0.525731
    outer loop
      vertex 1.30902 3.42705 -1
      vertex 1.30902 2.42705 -2.61803
      vertex 0.5 2.11803 -3.11803
    endloop
  endfacet
  facet normal 9.40346e-08 0.850651 -0.525731
    outer loop
      vertex -0.5 3.73607 -0.5
      vertex -0.5 2.11803 -3.11803
      vertex -1.30902 3.42705 -1
    endloop
  endfacet
  facet normal 1.76004e-07 0.850651 -0.525731
    outer loop
      vertex -1.30902 2.42705 -2.61803
      vertex -1.30902 3.42705 -1
      vertex -0.5 2.11803 -3.11803
    endloop
  endfacet
  facet normal 0 0.850651 -0.525731
    outer loop
      vertex -1.30902 3.42705 -1
      vertex -1.30902 2.42705 -2.61803
      vertex -1.61803 2.92705 -1.80902
    endloop
  endfacet
  facet normal -0.57735 0.57735 -0.57735
    outer loop
      vertex -2.61803 1.30902 -2.42705
      vertex -2.42705 2.61803 -1.30902
      vertex -1.61803 2.92705 -1.80902
    endloop
  endfacet
  facet normal -0.57735 0.57735 -0.57735
    outer loop
      vertex -2.42705 2.61803 -1.30902
      vertex -2.61803 1.30902 -2.42705
      vertex -2.92705 1.80902 -1.61803
    endloop
  endfacet
  facet normal -0.57735 0.57735 -0.57735
    outer loop
      vertex -1.80902 1.61803 -2.92705
      vertex -1.61803 2.92705 -1.80902
      vertex -1.30902 2.42705 -2.61803
    endloop
  endfacet
  facet normal -0.57735 0.57735 -0.57735
    outer loop
      vertex -1.61803 2.92705 -1.80902
      vertex -1.80902 1.61803 -2.92705
      vertex -2.61803 1.30902 -2.42705
    endloop
  endfacet
  facet normal -0.934172 -2.22724e-07 -0.356822
    outer loop
      vertex -3.11803 0.5 -2.11803
      vertex -3.73607 0.5 -0.5
      vertex -3.42705 1 -1.30902
    endloop
  endfacet
  facet normal -0.934172 0 -0.356822
    outer loop
      vertex -3.11803 -0.5 -2.11803
      vertex -3.73607 0.5 -0.5
      vertex -3.11803 0.5 -2.11803
    endloop
  endfacet
  facet normal -0.934172 0 -0.356822
    outer loop
      vertex -3.11803 -0.5 -2.11803
      vertex -3.73607 -0.5 -0.5
      vertex -3.73607 0.5 -0.5
    endloop
  endfacet
  facet normal -0.934172 2.22724e-07 -0.356822
    outer loop
      vertex -3.73607 -0.5 -0.5
      vertex -3.11803 -0.5 -2.11803
      vertex -3.42705 -1 -1.30902
    endloop
  endfacet
  facet normal -0.57735 -0.57735 -0.57735
    outer loop
      vertex -2.61803 -1.30902 -2.42705
      vertex -2.42705 -2.61803 -1.30902
      vertex -2.92705 -1.80902 -1.61803
    endloop
  endfacet
  facet normal -0.57735 -0.57735 -0.57735
    outer loop
      vertex -2.42705 -2.61803 -1.30902
      vertex -2.61803 -1.30902 -2.42705
      vertex -1.61803 -2.92705 -1.80902
    endloop
  endfacet
  facet normal -0.57735 -0.57735 -0.57735
    outer loop
      vertex -1.80902 -1.61803 -2.92705
      vertex -1.61803 -2.92705 -1.80902
      vertex -2.61803 -1.30902 -2.42705
    endloop
  endfacet
  facet normal -0.57735 -0.57735 -0.57735
    outer loop
      vertex -1.61803 -2.92705 -1.80902
      vertex -1.80902 -1.61803 -2.92705
      vertex -1.30902 -2.42705 -2.61803
    endloop
  endfacet
  facet normal -2.22724e-07 -0.356822 -0.934172
    outer loop
      vertex 0.5 -2.11803 -3.11803
      vertex 0.5 -0.5 -3.73607
      vertex 1 -1.30902 -3.42705
    endloop
  endfacet
  facet normal 0 -0.356822 -0.934172
    outer loop
      vertex -0.5 -2.11803 -3.11803
      vertex 0.5 -0.5 -3.73607
      vertex 0.5 -2.11803 -3.11803
    endloop
  endfacet
  facet normal 0 -0.356822 -0.934172
    outer loop
      vertex -0.5 -2.11803 -3.11803
      vertex -0.5 -0.5 -3.73607
      vertex 0.5 -0.5 -3.73607
    endloop
  endfacet
  facet normal 2.22724e-07 -0.356822 -0.934172
    outer loop
      vertex -0.5 -0.5 -3.73607
      vertex -0.5 -2.11803 -3.11803
      vertex -1 -1.30902 -3.42705
    endloop
  endfacet
  facet normal -2.22724e-07 0.356822 -0.934172
    outer loop
      vertex 0.5 0.5 -3.73607
      vertex 0.5 2.11803 -3.11803
      vertex 1 1.30902 -3.42705
    endloop
  endfacet
  facet normal 0 0.356822 -0.934172
    outer loop
      vertex -0.5 0.5 -3.73607
      vertex 0.5 2.11803 -3.11803
      vertex 0.5 0.5 -3.73607
    endloop
  endfacet
  facet normal 0 0.356822 -0.934172
    outer loop
      vertex -0.5 0.5 -3.73607
      vertex -0.5 2.11803 -3.11803
      vertex 0.5 2.11803 -3.11803
    endloop
  endfacet
  facet normal 2.22724e-07 0.356822 -0.934172
    outer loop
      vertex -0.5 2.11803 -3.11803
      vertex -0.5 0.5 -3.73607
      vertex -1 1.30902 -3.42705
    endloop
  endfacet
  facet normal 0.57735 0.57735 -0.57735
    outer loop
      vertex 2.61803 1.30902 -2.42705
      vertex 2.42705 2.61803 -1.30902
      vertex 2.92705 1.80902 -1.61803
    endloop
  endfacet
  facet normal 0.57735 0.57735 -0.57735
    outer loop
      vertex 2.42705 2.61803 -1.30902
      vertex 2.61803 1.30902 -2.42705
      vertex 1.61803 2.92705 -1.80902
    endloop
  endfacet
  facet normal 0.57735 0.57735 -0.57735
    outer loop
      vertex 1.80902 1.61803 -2.92705
      vertex 1.61803 2.92705 -1.80902
      vertex 2.61803 1.30902 -2.42705
    endloop
  endfacet
  facet normal 0.57735 0.57735 -0.57735
    outer loop
      vertex 1.61803 2.92705 -1.80902
      vertex 1.80902 1.61803 -2.92705
      vertex 1.30902 2.42705 -2.61803
    endloop
  endfacet
  facet normal 0.356822 0.934172 -2.22724e-07
    outer loop
      vertex 2.11803 3.11803 0.5
      vertex 0.5 3.73607 0.5
      vertex 1.30902 3.42705 1
    endloop
  endfacet
  facet normal 0.356822 0.934172 -0
    outer loop
      vertex 2.11803 3.11803 -0.5
      vertex 0.5 3.73607 0.5
      vertex 2.11803 3.11803 0.5
    endloop
  endfacet
  facet normal 0.356822 0.934172 0
    outer loop
      vertex 2.11803 3.11803 -0.5
      vertex 0.5 3.73607 -0.5
      vertex 0.5 3.73607 0.5
    endloop
  endfacet
  facet normal 0.356822 0.934172 2.22724e-07
    outer loop
      vertex 0.5 3.73607 -0.5
      vertex 2.11803 3.11803 -0.5
      vertex 1.30902 3.42705 -1
    endloop
  endfacet
  facet normal -0.356822 0.934172 -2.22724e-07
    outer loop
      vertex -0.5 3.73607 0.5
      vertex -2.11803 3.11803 0.5
      vertex -1.30902 3.42705 1
    endloop
  endfacet
  facet normal -0.356822 0.934172 0
    outer loop
      vertex -0.5 3.73607 -0.5
      vertex -2.11803 3.11803 0.5
      vertex -0.5 3.73607 0.5
    endloop
  endfacet
  facet normal -0.356822 0.934172 0
    outer loop
      vertex -0.5 3.73607 -0.5
      vertex -2.11803 3.11803 -0.5
      vertex -2.11803 3.11803 0.5
    endloop
  endfacet
  facet normal -0.356822 0.934172 2.22724e-07
    outer loop
      vertex -2.11803 3.11803 -0.5
      vertex -0.5 3.73607 -0.5
      vertex -1.30902 3.42705 -1
    endloop
  endfacet
  facet normal -0.57735 0.57735 0.57735
    outer loop
      vertex -2.42705 2.61803 1.30902
      vertex -1.30902 2.42705 2.61803
      vertex -1.61803 2.92705 1.80902
    endloop
  endfacet
  facet normal -0.57735 0.57735 0.57735
    outer loop
      vertex -1.30902 2.42705 2.61803
      vertex -2.42705 2.61803 1.30902
      vertex -1.80902 1.61803 2.92705
    endloop
  endfacet
  facet normal -0.57735 0.57735 0.57735
    outer loop
      vertex -2.92705 1.80902 1.61803
      vertex -1.80902 1.61803 2.92705
      vertex -2.42705 2.61803 1.30902
    endloop
  endfacet
  facet normal -0.57735 0.57735 0.57735
    outer loop
      vertex -1.80902 1.61803 2.92705
      vertex -2.92705 1.80902 1.61803
      vertex -2.61803 1.30902 2.42705
    endloop
  endfacet
  facet normal -0.934172 -2.22724e-07 0.356822
    outer loop
      vertex -3.73607 0.5 0.5
      vertex -3.11803 0.5 2.11803
      vertex -3.42705 1 1.30902
    endloop
  endfacet
  facet normal -0.934172 0 0.356822
    outer loop
      vertex -3.73607 -0.5 0.5
      vertex -3.11803 0.5 2.11803
      vertex -3.73607 0.5 0.5
    endloop
  endfacet
  facet normal -0.934172 0 0.356822
    outer loop
      vertex -3.73607 -0.5 0.5
      vertex -3.11803 -0.5 2.11803
      vertex -3.11803 0.5 2.11803
    endloop
  endfacet
  facet normal -0.934172 2.22724e-07 0.356822
    outer loop
      vertex -3.11803 -0.5 2.11803
      vertex -3.73607 -0.5 0.5
      vertex -3.42705 -1 1.30902
    endloop
  endfacet
  facet normal -0.356822 -0.934172 -2.22724e-07
    outer loop
      vertex -2.11803 -3.11803 0.5
      vertex -0.5 -3.73607 0.5
      vertex -1.30902 -3.42705 1
    endloop
  endfacet
  facet normal -0.356822 -0.934172 0
    outer loop
      vertex -2.11803 -3.11803 -0.5
      vertex -0.5 -3.73607 0.5
      vertex -2.11803 -3.11803 0.5
    endloop
  endfacet
  facet normal -0.356822 -0.934172 0
    outer loop
      vertex -2.11803 -3.11803 -0.5
      vertex -0.5 -3.73607 -0.5
      vertex -0.5 -3.73607 0.5
    endloop
  endfacet
  facet normal -0.356822 -0.934172 2.22724e-07
    outer loop
      vertex -0.5 -3.73607 -0.5
      vertex -2.11803 -3.11803 -0.5
      vertex -1.30902 -3.42705 -1
    endloop
  endfacet
  facet normal 0.356822 -0.934172 -2.22724e-07
    outer loop
      vertex 0.5 -3.73607 0.5
      vertex 2.11803 -3.11803 0.5
      vertex 1.30902 -3.42705 1
    endloop
  endfacet
  facet normal 0.356822 -0.934172 0
    outer loop
      vertex 0.5 -3.73607 -0.5
      vertex 2.11803 -3.11803 0.5
      vertex 0.5 -3.73607 0.5
    endloop
  endfacet
  facet normal 0.356822 -0.934172 0
    outer loop
      vertex 0.5 -3.73607 -0.5
      vertex 2.11803 -3.11803 -0.5
      vertex 2.11803 -3.11803 0.5
    endloop
  endfacet
  facet normal 0.356822 -0.934172 2.22724e-07
    outer loop
      vertex 2.11803 -3.11803 -0.5
      vertex 0.5 -3.73607 -0.5
      vertex 1.30902 -3.42705 -1
    endloop
  endfacet
  facet normal 0.57735 -0.57735 -0.57735
    outer loop
      vertex 2.61803 -1.30902 -2.42705
      vertex 2.42705 -2.61803 -1.30902
      vertex 1.61803 -2.92705 -1.80902
    endloop
  endfacet
  facet normal 0.57735 -0.57735 -0.57735
    outer loop
      vertex 2.42705 -2.61803 -1.30902
      vertex 2.61803 -1.30902 -2.42705
      vertex 2.92705 -1.80902 -1.61803
    endloop
  endfacet
  facet normal 0.57735 -0.57735 -0.57735
    outer loop
      vertex 1.80902 -1.61803 -2.92705
      vertex 1.61803 -2.92705 -1.80902
      vertex 1.30902 -2.42705 -2.61803
    endloop
  endfacet
  facet normal 0.57735 -0.57735 -0.57735
    outer loop
      vertex 1.61803 -2.92705 -1.80902
      vertex 1.80902 -1.61803 -2.92705
      vertex 2.61803 -1.30902 -2.42705
    endloop
  endfacet
  facet normal 0.934172 -2.22724e-07 -0.356822
    outer loop
      vertex 3.73607 0.5 -0.5
      vertex 3.11803 0.5 -2.11803
      vertex 3.42705 1 -1.30902
    endloop
  endfacet
  facet normal 0.934172 0 -0.356822
    outer loop
      vertex 3.73607 -0.5 -0.5
      vertex 3.11803 0.5 -2.11803
      vertex 3.73607 0.5 -0.5
    endloop
  endfacet
  facet normal 0.934172 0 -0.356822
    outer loop
      vertex 3.73607 -0.5 -0.5
      vertex 3.11803 -0.5 -2.11803
      vertex 3.11803 0.5 -2.11803
    endloop
  endfacet
  facet normal 0.934172 2.22724e-07 -0.356822
    outer loop
      vertex 3.11803 -0.5 -2.11803
      vertex 3.73607 -0.5 -0.5
      vertex 3.42705 -1 -1.30902
    endloop
  endfacet
  facet normal 0.57735 -0.57735 0.57735
    outer loop
      vertex 1.61803 -2.92705 1.80902
      vertex 1.80902 -1.61803 2.92705
      vertex 1.30902 -2.42705 2.61803
    endloop
  endfacet
  facet normal 0.57735 -0.57735 0.57735
    outer loop
      vertex 1.80902 -1.61803 2.92705
      vertex 1.61803 -2.92705 1.80902
      vertex 2.61803 -1.30902 2.42705
    endloop
  endfacet
  facet normal 0.57735 -0.57735 0.57735
    outer loop
      vertex 2.42705 -2.61803 1.30902
      vertex 2.61803 -1.30902 2.42705
      vertex 1.61803 -2.92705 1.80902
    endloop
  endfacet
  facet normal 0.57735 -0.57735 0.57735
    outer loop
      vertex 2.61803 -1.30902 2.42705
      vertex 2.42705 -2.61803 1.30902
      vertex 2.92705 -1.80902 1.61803
    endloop
  endfacet
  facet normal 0.934172 -2.22724e-07 0.356822
    outer loop
      vertex 3.11803 0.5 2.11803
      vertex 3.73607 0.5 0.5
      vertex 3.42705 1 1.30902
    endloop
  endfacet
  facet normal 0.934172 -0 0.356822
    outer loop
      vertex 3.11803 -0.5 2.11803
      vertex 3.73607 0.5 0.5
      vertex 3.11803 0.5 2.11803
    endloop
  endfacet
  facet normal 0.934172 0 0.356822
    outer loop
      vertex 3.11803 -0.5 2.11803
      vertex 3.73607 -0.5 0.5
      vertex 3.73607 0.5 0.5
    endloop
  endfacet
  facet normal 0.934172 2.22724e-07 0.356822
    outer loop
      vertex 3.73607 -0.5 0.5
      vertex 3.11803 -0.5 2.11803
      vertex 3.42705 -1 1.30902
    endloop
  endfacet
  facet normal 0.57735 0.57735 0.57735
    outer loop
      vertex 1.61803 2.92705 1.80902
      vertex 1.80902 1.61803 2.92705
      vertex 2.61803 1.30902 2.42705
    endloop
  endfacet
  facet normal 0.57735 0.57735 0.57735
    outer loop
      vertex 1.80902 1.61803 2.92705
      vertex 1.61803 2.92705 1.80902
      vertex 1.30902 2.42705 2.61803
    endloop
  endfacet
  facet normal 0.57735 0.57735 0.57735
    outer loop
      vertex 2.42705 2.61803 1.30902
      vertex 2.61803 1.30902 2.42705
      vertex 2.92705 1.80902 1.61803
    endloop
  endfacet
  facet normal 0.57735 0.57735 0.57735
    outer loop
      vertex 2.61803 1.30902 2.42705
      vertex 2.42705 2.61803 1.30902
      vertex 1.61803 2.92705 1.80902
    endloop
  endfacet
  facet normal -2.22724e-07 0.356822 0.934172
    outer loop
      vertex 0.5 2.11803 3.11803
      vertex 0.5 0.5 3.73607
      vertex 1 1.30902 3.42705
    endloop
  endfacet
  facet normal -0 0.356822 0.934172
    outer loop
      vertex -0.5 2.11803 3.11803
      vertex 0.5 0.5 3.73607
      vertex 0.5 2.11803 3.11803
    endloop
  endfacet
  facet normal 0 0.356822 0.934172
    outer loop
      vertex -0.5 2.11803 3.11803
      vertex -0.5 0.5 3.73607
      vertex 0.5 0.5 3.73607
    endloop
  endfacet
  facet normal 2.22724e-07 0.356822 0.934172
    outer loop
      vertex -0.5 0.5 3.73607
      vertex -0.5 2.11803 3.11803
      vertex -1 1.30902 3.42705
    endloop
  endfacet
  facet normal -2.22724e-07 -0.356822 0.934172
    outer loop
      vertex 0.5 -0.5 3.73607
      vertex 0.5 -2.11803 3.11803
      vertex 1 -1.30902 3.42705
    endloop
  endfacet
  facet normal 0 -0.356822 0.934172
    outer loop
      vertex -0.5 -0.5 3.73607
      vertex 0.5 -2.11803 3.11803
      vertex 0.5 -0.5 3.73607
    endloop
  endfacet
  facet normal 0 -0.356822 0.934172
    outer loop
      vertex -0.5 -0.5 3.73607
      vertex -0.5 -2.11803 3.11803
      vertex 0.5 -2.11803 3.11803
    endloop
  endfacet
  facet normal 2.22724e-07 -0.356822 0.934172
    outer loop
      vertex -0.5 -2.11803 3.11803
      vertex -0.5 -0.5 3.73607
      vertex -1 -1.30902 3.42705
    endloop
  endfacet
  facet normal -0.57735 -0.57735 0.57735
    outer loop
      vertex -1.61803 -2.92705 1.80902
      vertex -1.80902 -1.61803 2.92705
      vertex -2.61803 -1.30902 2.42705
    endloop
  endfacet
  facet normal -0.57735 -0.57735 0.57735
    outer loop
      vertex -1.80902 -1.61803 2.92705
      vertex -1.61803 -2.92705 1.80902
      vertex -1.30902 -2.42705 2.61803
    endloop
  endfacet
  facet normal -0.57735 -0.57735 0.57735
    outer loop
      vertex -2.42705 -2.61803 1.30902
      vertex -2.61803 -1.30902 2.42705
      vertex -2.92705 -1.80902 1.61803
    endloop
  endfacet
  facet normal -0.57735 -0.57735 0.57735
    outer loop
      vertex -2.61803 -1.30902 2.42705
      vertex -2.42705 -2.61803 1.30902
      vertex -1.61803 -2.92705 1.80902
    endloop
  endfacet
  facet normal -0.5 -0.809017 0.309017
    outer loop
      vertex -2.42705 -2.61803 1.30902
      vertex -1.30902 -3.42705 1
      vertex -1.61803 -2.92705 1.80902
    endloop
  endfacet
  facet normal -0.5 -0.809017 0.309017
    outer loop
      vertex -1.30902 -3.42705 1
      vertex -2.42705 -2.61803 1.30902
      vertex -2.11803 -3.11803 0.5
    endloop
  endfacet
  facet normal -0.309017 -0.5 0.809017
    outer loop
      vertex -1 -1.30902 3.42705
      vertex -1.30902 -2.42705 2.61803
      vertex -0.5 -2.11803 3.11803
    endloop
  endfacet
  facet normal -0.309017 -0.5 0.809017
    outer loop
      vertex -1.30902 -2.42705 2.61803
      vertex -1 -1.30902 3.42705
      vertex -1.80902 -1.61803 2.92705
    endloop
  endfacet
  facet normal -0.809017 -0.309017 0.5
    outer loop
      vertex -3.42705 -1 1.30902
      vertex -2.61803 -1.30902 2.42705
      vertex -3.11803 -0.5 2.11803
    endloop
  endfacet
  facet normal -0.809017 -0.309017 0.5
    outer loop
      vertex -2.61803 -1.30902 2.42705
      vertex -3.42705 -1 1.30902
      vertex -2.92705 -1.80902 1.61803
    endloop
  endfacet
  facet normal -0.5 -0.809017 -0.309017
    outer loop
      vertex -2.42705 -2.61803 -1.30902
      vertex -1.30902 -3.42705 -1
      vertex -2.11803 -3.11803 -0.5
    endloop
  endfacet
  facet normal -0.5 -0.809017 -0.309017
    outer loop
      vertex -1.30902 -3.42705 -1
      vertex -2.42705 -2.61803 -1.30902
      vertex -1.61803 -2.92705 -1.80902
    endloop
  endfacet
  facet normal 0 -1 0
    outer loop
      vertex -0.5 -3.73607 -0.5
      vertex 0.5 -3.73607 0.5
      vertex -0.5 -3.73607 0.5
    endloop
  endfacet
  facet normal 0 -1 -0
    outer loop
      vertex 0.5 -3.73607 0.5
      vertex -0.5 -3.73607 -0.5
      vertex 0.5 -3.73607 -0.5
    endloop
  endfacet
  facet normal -0.309017 -0.5 -0.809017
    outer loop
      vertex -1.30902 -2.42705 -2.61803
      vertex -1 -1.30902 -3.42705
      vertex -0.5 -2.11803 -3.11803
    endloop
  endfacet
  facet normal -0.309017 -0.5 -0.809017
    outer loop
      vertex -1 -1.30902 -3.42705
      vertex -1.30902 -2.42705 -2.61803
      vertex -1.80902 -1.61803 -2.92705
    endloop
  endfacet
  facet normal -0.809017 -0.309017 -0.5
    outer loop
      vertex -2.61803 -1.30902 -2.42705
      vertex -3.42705 -1 -1.30902
      vertex -3.11803 -0.5 -2.11803
    endloop
  endfacet
  facet normal -0.809017 -0.309017 -0.5
    outer loop
      vertex -3.42705 -1 -1.30902
      vertex -2.61803 -1.30902 -2.42705
      vertex -2.92705 -1.80902 -1.61803
    endloop
  endfacet
  facet normal -1 0 0
    outer loop
      vertex -3.73607 -0.5 -0.5
      vertex -3.73607 0.5 0.5
      vertex -3.73607 0.5 -0.5
    endloop
  endfacet
  facet normal -1 -0 0
    outer loop
      vertex -3.73607 0.5 0.5
      vertex -3.73607 -0.5 -0.5
      vertex -3.73607 -0.5 0.5
    endloop
  endfacet
  facet normal -0.809017 0.309017 -0.5
    outer loop
      vertex -2.61803 1.30902 -2.42705
      vertex -3.42705 1 -1.30902
      vertex -2.92705 1.80902 -1.61803
    endloop
  endfacet
  facet normal -0.809017 0.309017 -0.5
    outer loop
      vertex -3.42705 1 -1.30902
      vertex -2.61803 1.30902 -2.42705
      vertex -3.11803 0.5 -2.11803
    endloop
  endfacet
  facet normal -0.309017 0.5 -0.809017
    outer loop
      vertex -1 1.30902 -3.42705
      vertex -1.30902 2.42705 -2.61803
      vertex -0.5 2.11803 -3.11803
    endloop
  endfacet
  facet normal -0.309017 0.5 -0.809017
    outer loop
      vertex -1.30902 2.42705 -2.61803
      vertex -1 1.30902 -3.42705
      vertex -1.80902 1.61803 -2.92705
    endloop
  endfacet
  facet normal 0 0 -1
    outer loop
      vertex -0.5 -0.5 -3.73607
      vertex 0.5 0.5 -3.73607
      vertex 0.5 -0.5 -3.73607
    endloop
  endfacet
  facet normal -0 0 -1
    outer loop
      vertex 0.5 0.5 -3.73607
      vertex -0.5 -0.5 -3.73607
      vertex -0.5 0.5 -3.73607
    endloop
  endfacet
  facet normal 0.309017 -0.5 -0.809017
    outer loop
      vertex 1.30902 -2.42705 -2.61803
      vertex 1 -1.30902 -3.42705
      vertex 1.80902 -1.61803 -2.92705
    endloop
  endfacet
  facet normal 0.309017 -0.5 -0.809017
    outer loop
      vertex 1 -1.30902 -3.42705
      vertex 1.30902 -2.42705 -2.61803
      vertex 0.5 -2.11803 -3.11803
    endloop
  endfacet
  facet normal 0.5 -0.809017 -0.309017
    outer loop
      vertex 1.30902 -3.42705 -1
      vertex 2.42705 -2.61803 -1.30902
      vertex 2.11803 -3.11803 -0.5
    endloop
  endfacet
  facet normal 0.5 -0.809017 -0.309017
    outer loop
      vertex 2.42705 -2.61803 -1.30902
      vertex 1.30902 -3.42705 -1
      vertex 1.61803 -2.92705 -1.80902
    endloop
  endfacet
  facet normal 0.5 -0.809017 0.309017
    outer loop
      vertex 1.30902 -3.42705 1
      vertex 2.42705 -2.61803 1.30902
      vertex 1.61803 -2.92705 1.80902
    endloop
  endfacet
  facet normal 0.5 -0.809017 0.309017
    outer loop
      vertex 2.42705 -2.61803 1.30902
      vertex 1.30902 -3.42705 1
      vertex 2.11803 -3.11803 0.5
    endloop
  endfacet
  facet normal 0.309017 -0.5 0.809017
    outer loop
      vertex 1 -1.30902 3.42705
      vertex 1.30902 -2.42705 2.61803
      vertex 1.80902 -1.61803 2.92705
    endloop
  endfacet
  facet normal 0.309017 -0.5 0.809017
    outer loop
      vertex 1.30902 -2.42705 2.61803
      vertex 1 -1.30902 3.42705
      vertex 0.5 -2.11803 3.11803
    endloop
  endfacet
  facet normal -0 0 1
    outer loop
      vertex -0.5 0.5 3.73607
      vertex 0.5 -0.5 3.73607
      vertex 0.5 0.5 3.73607
    endloop
  endfacet
  facet normal 0 0 1
    outer loop
      vertex 0.5 -0.5 3.73607
      vertex -0.5 0.5 3.73607
      vertex -0.5 -0.5 3.73607
    endloop
  endfacet
  facet normal -0.309017 0.5 0.809017
    outer loop
      vertex -1.30902 2.42705 2.61803
      vertex -1 1.30902 3.42705
      vertex -0.5 2.11803 3.11803
    endloop
  endfacet
  facet normal -0.309017 0.5 0.809017
    outer loop
      vertex -1 1.30902 3.42705
      vertex -1.30902 2.42705 2.61803
      vertex -1.80902 1.61803 2.92705
    endloop
  endfacet
  facet normal -0.809017 0.309017 0.5
    outer loop
      vertex -3.42705 1 1.30902
      vertex -2.61803 1.30902 2.42705
      vertex -2.92705 1.80902 1.61803
    endloop
  endfacet
  facet normal -0.809017 0.309017 0.5
    outer loop
      vertex -2.61803 1.30902 2.42705
      vertex -3.42705 1 1.30902
      vertex -3.11803 0.5 2.11803
    endloop
  endfacet
  facet normal -0.5 0.809017 0.309017
    outer loop
      vertex -1.30902 3.42705 1
      vertex -2.42705 2.61803 1.30902
      vertex -1.61803 2.92705 1.80902
    endloop
  endfacet
  facet normal -0.5 0.809017 0.309017
    outer loop
      vertex -2.42705 2.61803 1.30902
      vertex -1.30902 3.42705 1
      vertex -2.11803 3.11803 0.5
    endloop
  endfacet
  facet normal -0.5 0.809017 -0.309017
    outer loop
      vertex -1.30902 3.42705 -1
      vertex -2.42705 2.61803 -1.30902
      vertex -2.11803 3.11803 -0.5
    endloop
  endfacet
  facet normal -0.5 0.809017 -0.309017
    outer loop
      vertex -2.42705 2.61803 -1.30902
      vertex -1.30902 3.42705 -1
      vertex -1.61803 2.92705 -1.80902
    endloop
  endfacet
  facet normal 0 1 -0
    outer loop
      vertex 0.5 3.73607 -0.5
      vertex -0.5 3.73607 0.5
      vertex 0.5 3.73607 0.5
    endloop
  endfacet
  facet normal 0 1 0
    outer loop
      vertex -0.5 3.73607 0.5
      vertex 0.5 3.73607 -0.5
      vertex -0.5 3.73607 -0.5
    endloop
  endfacet
  facet normal 0.5 0.809017 0.309017
    outer loop
      vertex 2.42705 2.61803 1.30902
      vertex 1.30902 3.42705 1
      vertex 1.61803 2.92705 1.80902
    endloop
  endfacet
  facet normal 0.5 0.809017 0.309017
    outer loop
      vertex 1.30902 3.42705 1
      vertex 2.42705 2.61803 1.30902
      vertex 2.11803 3.11803 0.5
    endloop
  endfacet
  facet normal 0.809017 0.309017 0.5
    outer loop
      vertex 2.61803 1.30902 2.42705
      vertex 3.42705 1 1.30902
      vertex 2.92705 1.80902 1.61803
    endloop
  endfacet
  facet normal 0.809017 0.309017 0.5
    outer loop
      vertex 3.42705 1 1.30902
      vertex 2.61803 1.30902 2.42705
      vertex 3.11803 0.5 2.11803
    endloop
  endfacet
  facet normal 0.809017 -0.309017 0.5
    outer loop
      vertex 2.61803 -1.30902 2.42705
      vertex 3.42705 -1 1.30902
      vertex 3.11803 -0.5 2.11803
    endloop
  endfacet
  facet normal 0.809017 -0.309017 0.5
    outer loop
      vertex 3.42705 -1 1.30902
      vertex 2.61803 -1.30902 2.42705
      vertex 2.92705 -1.80902 1.61803
    endloop
  endfacet
  facet normal 1 -0 0
    outer loop
      vertex 3.73607 -0.5 0.5
      vertex 3.73607 0.5 -0.5
      vertex 3.73607 0.5 0.5
    endloop
  endfacet
  facet normal 1 0 0
    outer loop
      vertex 3.73607 0.5 -0.5
      vertex 3.73607 -0.5 0.5
      vertex 3.73607 -0.5 -0.5
    endloop
  endfacet
  facet normal 0.809017 -0.309017 -0.5
    outer loop
      vertex 3.42705 -1 -1.30902
      vertex 2.61803 -1.30902 -2.42705
      vertex 3.11803 -0.5 -2.11803
    endloop
  endfacet
  facet normal 0.809017 -0.309017 -0.5
    outer loop
      vertex 2.61803 -1.30902 -2.42705
      vertex 3.42705 -1 -1.30902
      vertex 2.92705 -1.80902 -1.61803
    endloop
  endfacet
  facet normal 0.809017 0.309017 -0.5
    outer loop
      vertex 3.42705 1 -1.30902
      vertex 2.61803 1.30902 -2.42705
      vertex 2.92705 1.80902 -1.61803
    endloop
  endfacet
  facet normal 0.809017 0.309017 -0.5
    outer loop
      vertex 2.61803 1.30902 -2.42705
      vertex 3.42705 1 -1.30902
      vertex 3.11803 0.5 -2.11803
    endloop
  endfacet
  facet normal 0.309017 0.5 -0.809017
    outer loop
      vertex 1 1.30902 -3.42705
      vertex 1.30902 2.42705 -2.61803
      vertex 1.80902 1.61803 -2.92705
    endloop
  endfacet
  facet normal 0.309017 0.5 -0.809017
    outer loop
      vertex 1.30902 2.42705 -2.61803
      vertex 1 1.30902 -3.42705
      vertex 0.5 2.11803 -3.11803
    endloop
  endfacet
  facet normal 0.5 0.809017 -0.309017
    outer loop
      vertex 2.42705 2.61803 -1.30902
      vertex 1.30902 3.42705 -1
      vertex 2.11803 3.11803 -0.5
    endloop
  endfacet
  facet normal 0.5 0.809017 -0.309017
    outer loop
      vertex 1.30902 3.42705 -1
      vertex 2.42705 2.61803 -1.30902
      vertex 1.61803 2.92705 -1.80902
    endloop
  endfacet
  facet normal 0.309017 0.5 0.809017
    outer loop
      vertex 1.30902 2.42705 2.61803
      vertex 1 1.30902 3.42705
      vertex 1.80902 1.61803 2.92705
    endloop
  endfacet
  facet normal 0.309017 0.5 0.809017
    outer loop
      vertex 1 1.30902 3.42705
      vertex 1.30902 2.42705 2.61803
      vertex 0.5 2.11803 3.11803
    endloop
  endfacet
endsolid OpenSCAD_Model
