solid OpenSCAD_Model
  facet normal 0 -1 0
    outer loop
      vertex -1 -1 0.414214
      vertex 0.414214 -1 1
      vertex -0.414214 -1 1
    endloop
  endfacet
  facet normal 0 -1 0
    outer loop
      vertex -1 -1 0.414214
      vertex 1 -1 0.414214
      vertex 0.414214 -1 1
    endloop
  endfacet
  facet normal 0 -1 0
    outer loop
      vertex -1 -1 -0.414214
      vertex 1 -1 0.414214
      vertex -1 -1 0.414214
    endloop
  endfacet
  facet normal 0 -1 0
    outer loop
      vertex -1 -1 -0.414214
      vertex 1 -1 -0.414214
      vertex 1 -1 0.414214
    endloop
  endfacet
  facet normal 0 -1 0
    outer loop
      vertex -0.414214 -1 -1
      vertex 1 -1 -0.414214
      vertex -1 -1 -0.414214
    endloop
  endfacet
  facet normal 0 -1 0
    outer loop
      vertex 1 -1 -0.414214
      vertex -0.414214 -1 -1
      vertex 0.414214 -1 -1
    endloop
  endfacet
  facet normal 1 0 0
    outer loop
      vertex 1 0.414214 1
      vertex 1 1 -0.414214
      vertex 1 1 0.414214
    endloop
  endfacet
  facet normal 1 0 0
    outer loop
      vertex 1 0.414214 1
      vertex 1 0.414214 -1
      vertex 1 1 -0.414214
    endloop
  endfacet
  facet normal 1 -0 0
    outer loop
      vertex 1 -0.414214 1
      vertex 1 0.414214 -1
      vertex 1 0.414214 1
    endloop
  endfacet
  facet normal 1 0 0
    outer loop
      vertex 1 -0.414214 1
      vertex 1 -0.414214 -1
      vertex 1 0.414214 -1
    endloop
  endfacet
  facet normal 1 -0 0
    outer loop
      vertex 1 -1 0.414214
      vertex 1 -0.414214 -1
      vertex 1 -0.414214 1
    endloop
  endfacet
  facet normal 1 0 0
    outer loop
      vertex 1 -0.414214 -1
      vertex 1 -1 0.414214
      vertex 1 -1 -0.414214
    endloop
  endfacet
  facet normal 0 1 0
    outer loop
      vertex 1 1 0.414214
      vertex -0.414214 1 1
      vertex 0.414214 1 1
    endloop
  endfacet
  facet normal 0 1 0
    outer loop
      vertex 1 1 0.414214
      vertex -1 1 0.414214
      vertex -0.414214 1 1
    endloop
  endfacet
  facet normal 0 1 -0
    outer loop
      vertex 1 1 -0.414214
      vertex -1 1 0.414214
      vertex 1 1 0.414214
    endloop
  endfacet
  facet normal 0 1 0
    outer loop
      vertex 1 1 -0.414214
      vertex -1 1 -0.414214
      vertex -1 1 0.414214
    endloop
  endfacet
  facet normal 0 1 -0
    outer loop
      vertex 0.414214 1 -1
      vertex -1 1 -0.414214
      vertex 1 1 -0.414214
    endloop
  endfacet
  facet normal 0 1 0
    outer loop
      vertex -1 1 -0.414214
      vertex 0.414214 1 -1
      vertex -0.414214 1 -1
    endloop
  endfacet
  facet normal -1 0 0
    outer loop
      vertex -1 0.414214 -1
      vertex -1 1 0.414214
      vertex -1 1 -0.414214
    endloop
  endfacet
  facet normal -1 0 0
    outer loop
      vertex -1 0.414214 -1
      vertex -1 0.414214 1
      vertex -1 1 0.414214
    endloop
  endfacet
  facet normal -1 0 0
    outer loop
      vertex -1 -0.414214 -1
      vertex -1 0.414214 1
      vertex -1 0.414214 -1
    endloop
  endfacet
  facet normal -1 0 0
    outer loop
      vertex -1 -0.414214 -1
      vertex -1 -0.414214 1
      vertex -1 0.414214 1
    endloop
  endfacet
  facet normal -1 0 0
    outer loop
      vertex -1 -1 -0.414214
      vertex -1 -0.414214 1
      vertex -1 -0.414214 -1
    endloop
  endfacet
  facet normal -1 0 0
    outer loop
      vertex -1 -0.414214 1
      vertex -1 -1 -0.414214
      vertex -1 -1 0.414214
    endloop
  endfacet
  facet normal 0 0 1
    outer loop
      vertex 0.414214 1 1
      vertex 1 -0.414214 1
      vertex 1 0.414214 1
    endloop
  endfacet
  facet normal 0 0 1
    outer loop
      vertex 0.414214 1 1
      vertex 0.414214 -1 1
      vertex 1 -0.414214 1
    endloop
  endfacet
  facet normal -0 0 1
    outer loop
      vertex -0.414214 1 1
      vertex 0.414214 -1 1
      vertex 0.414214 1 1
    endloop
  endfacet
  facet normal 0 0 1
    outer loop
      vertex -0.414214 1 1
      vertex -0.414214 -1 1
      vertex 0.414214 -1 1
    endloop
  endfacet
  facet normal -0 0 1
    outer loop
      vertex -1 0.414214 1
      vertex -0.414214 -1 1
      vertex -0.414214 1 1
    endloop
  endfacet
  facet normal 0 0 1
    outer loop
      vertex -0.414214 -1 1
      vertex -1 0.414214 1
      vertex -1 -0.414214 1
    endloop
  endfacet
  facet normal 0 0 -1
    outer loop
      vertex 0.414214 -1 -1
      vertex 1 0.414214 -1
      vertex 1 -0.414214 -1
    endloop
  endfacet
  facet normal 0 0 -1
    outer loop
      vertex 0.414214 -1 -1
      vertex 0.414214 1 -1
      vertex 1 0.414214 -1
    endloop
  endfacet
  facet normal 0 0 -1
    outer loop
      vertex -0.414214 -1 -1
      vertex 0.414214 1 -1
      vertex 0.414214 -1 -1
    endloop
  endfacet
  facet normal 0 0 -1
    outer loop
      vertex -0.414214 -1 -1
      vertex -0.414214 1 -1
      vertex 0.414214 1 -1
    endloop
  endfacet
  facet normal 0 0 -1
    outer loop
      vertex -1 -0.414214 -1
      vertex -0.414214 1 -1
      vertex -0.414214 -1 -1
    endloop
  endfacet
  facet normal 0 0 -1
    outer loop
      vertex -0.414214 1 -1
      vertex -1 -0.414214 -1
      vertex -1 0.414214 -1
    endloop
  endfacet
  facet normal 0.57735 0.57735 0.57735
    outer loop
      vertex 0.414214 1 1
      vertex 1 0.414214 1
      vertex 1 1 0.414214
    endloop
  endfacet
  facet normal -0.57735 0.57735 0.57735
    outer loop
      vertex -1 0.414214 1
      vertex -0.414214 1 1
      vertex -1 1 0.414214
    endloop
  endfacet
  facet normal -0.57735 -0.57735 0.57735
    outer loop
      vertex -0.414214 -1 1
      vertex -1 -0.414214 1
      vertex -1 -1 0.414214
    endloop
  endfacet
  facet normal 0.57735 -0.57735 0.57735
    outer loop
      vertex 1 -1 0.414214
      vertex 1 -0.414214 1
      vertex 0.414214 -1 1
    endloop
  endfacet
  facet normal 0.57735 -0.57735 -0.57735
    outer loop
      vertex 0.414214 -1 -1
      vertex 1 -0.414214 -1
      vertex 1 -1 -0.414214
    endloop
  endfacet
  facet normal 0.57735 0.57735 -0.57735
    outer loop
      vertex 0.414214 1 -1
      vertex 1 1 -0.414214
      vertex 1 0.414214 -1
    endloop
  endfacet
  facet normal -0.57735 0.57735 -0.57735
    outer loop
      vertex -1 0.414214 -1
      vertex -1 1 -0.414214
      vertex -0.414214 1 -1
    endloop
  endfacet
  facet normal -0.57735 -0.57735 -0.57735
    outer loop
      vertex -0.414214 -1 -1
      vertex -1 -1 -0.414214
      vertex -1 -0.414214 -1
    endloop
  endfacet
endsolid OpenSCAD_Model
