solid OpenSCAD_Model
  facet normal 0.57735 0.57735 -0.57735
    outer loop
      vertex 1.41421 0.707107 0
      vertex 0 1.41421 -0.707107
      vertex 0.707107 1.41421 0
    endloop
  endfacet
  facet normal 0.57735 0.57735 -0.57735
    outer loop
      vertex 1.41421 0.707107 0
      vertex 0 0.707107 -1.41421
      vertex 0 1.41421 -0.707107
    endloop
  endfacet
  facet normal 0.57735 0.57735 -0.57735
    outer loop
      vertex 1.41421 0 -0.707107
      vertex 0 0.707107 -1.41421
      vertex 1.41421 0.707107 0
    endloop
  endfacet
  facet normal 0.57735 0.57735 -0.57735
    outer loop
      vertex 0 0.707107 -1.41421
      vertex 1.41421 0 -0.707107
      vertex 0.707107 0 -1.41421
    endloop
  endfacet
  facet normal 0.57735 -0.57735 -0.57735
    outer loop
      vertex 0 -0.707107 -1.41421
      vertex 1.41421 0 -0.707107
      vertex 1.41421 -0.707107 0
    endloop
  endfacet
  facet normal 0.57735 -0.57735 -0.57735
    outer loop
      vertex 1.41421 0 -0.707107
      vertex 0 -0.707107 -1.41421
      vertex 0.707107 0 -1.41421
    endloop
  endfacet
  facet normal 0.57735 -0.57735 -0.57735
    outer loop
      vertex 0 -1.41421 -0.707107
      vertex 1.41421 -0.707107 0
      vertex 0.707107 -1.41421 0
    endloop
  endfacet
  facet normal 0.57735 -0.57735 -0.57735
    outer loop
      vertex 1.41421 -0.707107 0
      vertex 0 -1.41421 -0.707107
      vertex 0 -0.707107 -1.41421
    endloop
  endfacet
  facet normal -0.57735 -0.57735 -0.57735
    outer loop
      vertex 0 -0.707107 -1.41421
      vertex -1.41421 0 -0.707107
      vertex -0.707107 0 -1.41421
    endloop
  endfacet
  facet normal -0.57735 -0.57735 -0.57735
    outer loop
      vertex 0 -0.707107 -1.41421
      vertex -1.41421 -0.707107 0
      vertex -1.41421 0 -0.707107
    endloop
  endfacet
  facet normal -0.57735 -0.57735 -0.57735
    outer loop
      vertex 0 -1.41421 -0.707107
      vertex -1.41421 -0.707107 0
      vertex 0 -0.707107 -1.41421
    endloop
  endfacet
  facet normal -0.57735 -0.57735 -0.57735
    outer loop
      vertex -1.41421 -0.707107 0
      vertex 0 -1.41421 -0.707107
      vertex -0.707107 -1.41421 0
    endloop
  endfacet
  facet normal -0.57735 0.57735 -0.57735
    outer loop
      vertex -1.41421 0.707107 0
      vertex 0 1.41421 -0.707107
      vertex 0 0.707107 -1.41421
    endloop
  endfacet
  facet normal -0.57735 0.57735 -0.57735
    outer loop
      vertex 0 1.41421 -0.707107
      vertex -1.41421 0.707107 0
      vertex -0.707107 1.41421 0
    endloop
  endfacet
  facet normal -0.57735 0.57735 -0.57735
    outer loop
      vertex -1.41421 0 -0.707107
      vertex 0 0.707107 -1.41421
      vertex -0.707107 0 -1.41421
    endloop
  endfacet
  facet normal -0.57735 0.57735 -0.57735
    outer loop
      vertex 0 0.707107 -1.41421
      vertex -1.41421 0 -0.707107
      vertex -1.41421 0.707107 0
    endloop
  endfacet
  facet normal 0.57735 -0.57735 0.57735
    outer loop
      vertex 0 -0.707107 1.41421
      vertex 1.41421 0 0.707107
      vertex 0.707107 0 1.41421
    endloop
  endfacet
  facet normal 0.57735 -0.57735 0.57735
    outer loop
      vertex 0 -0.707107 1.41421
      vertex 1.41421 -0.707107 0
      vertex 1.41421 0 0.707107
    endloop
  endfacet
  facet normal 0.57735 -0.57735 0.57735
    outer loop
      vertex 0 -1.41421 0.707107
      vertex 1.41421 -0.707107 0
      vertex 0 -0.707107 1.41421
    endloop
  endfacet
  facet normal 0.57735 -0.57735 0.57735
    outer loop
      vertex 1.41421 -0.707107 0
      vertex 0 -1.41421 0.707107
      vertex 0.707107 -1.41421 0
    endloop
  endfacet
  facet normal -0.57735 -0.57735 0.57735
    outer loop
      vertex 0 -0.707107 1.41421
      vertex -1.41421 0 0.707107
      vertex -1.41421 -0.707107 0
    endloop
  endfacet
  facet normal -0.57735 -0.57735 0.57735
    outer loop
      vertex -1.41421 0 0.707107
      vertex 0 -0.707107 1.41421
      vertex -0.707107 0 1.41421
    endloop
  endfacet
  facet normal -0.57735 -0.57735 0.57735
    outer loop
      vertex 0 -1.41421 0.707107
      vertex -1.41421 -0.707107 0
      vertex -0.707107 -1.41421 0
    endloop
  endfacet
  facet normal -0.57735 -0.57735 0.57735
    outer loop
      vertex -1.41421 -0.707107 0
      vertex 0 -1.41421 0.707107
      vertex 0 -0.707107 1.41421
    endloop
  endfacet
  facet normal -0.57735 0.57735 0.57735
    outer loop
      vertex -1.41421 0.707107 0
      vertex 0 1.41421 0.707107
      vertex -0.707107 1.41421 0
    endloop
  endfacet
  facet normal -0.57735 0.57735 0.57735
    outer loop
      vertex -1.41421 0.707107 0
      vertex 0 0.707107 1.41421
      vertex 0 1.41421 0.707107
    endloop
  endfacet
  facet normal -0.57735 0.57735 0.57735
    outer loop
      vertex -1.41421 0 0.707107
      vertex 0 0.707107 1.41421
      vertex -1.41421 0.707107 0
    endloop
  endfacet
  facet normal -0.57735 0.57735 0.57735
    outer loop
      vertex 0 0.707107 1.41421
      vertex -1.41421 0 0.707107
      vertex -0.707107 0 1.41421
    endloop
  endfacet
  facet normal 0.57735 0.57735 0.57735
    outer loop
      vertex 1.41421 0.707107 0
      vertex 0 1.41421 0.707107
      vertex 0 0.707107 1.41421
    endloop
  endfacet
  facet normal 0.57735 0.57735 0.57735
    outer loop
      vertex 0 1.41421 0.707107
      vertex 1.41421 0.707107 0
      vertex 0.707107 1.41421 0
    endloop
  endfacet
  facet normal 0.57735 0.57735 0.57735
    outer loop
      vertex 1.41421 0 0.707107
      vertex 0 0.707107 1.41421
      vertex 0.707107 0 1.41421
    endloop
  endfacet
  facet normal 0.57735 0.57735 0.57735
    outer loop
      vertex 0 0.707107 1.41421
      vertex 1.41421 0 0.707107
      vertex 1.41421 0.707107 0
    endloop
  endfacet
  facet normal 0 0 1
    outer loop
      vertex 0 0.707107 1.41421
      vertex 0 -0.707107 1.41421
      vertex 0.707107 0 1.41421
    endloop
  endfacet
  facet normal 0 -0 1
    outer loop
      vertex 0 -0.707107 1.41421
      vertex 0 0.707107 1.41421
      vertex -0.707107 0 1.41421
    endloop
  endfacet
  facet normal -1 0 0
    outer loop
      vertex -1.41421 0 -0.707107
      vertex -1.41421 0 0.707107
      vertex -1.41421 0.707107 0
    endloop
  endfacet
  facet normal -1 0 -0
    outer loop
      vertex -1.41421 0 0.707107
      vertex -1.41421 0 -0.707107
      vertex -1.41421 -0.707107 0
    endloop
  endfacet
  facet normal 0 -1 0
    outer loop
      vertex -0.707107 -1.41421 0
      vertex 0.707107 -1.41421 0
      vertex 0 -1.41421 0.707107
    endloop
  endfacet
  facet normal -0 -1 0
    outer loop
      vertex 0.707107 -1.41421 0
      vertex -0.707107 -1.41421 0
      vertex 0 -1.41421 -0.707107
    endloop
  endfacet
  facet normal 1 0 0
    outer loop
      vertex 1.41421 0 0.707107
      vertex 1.41421 0 -0.707107
      vertex 1.41421 0.707107 0
    endloop
  endfacet
  facet normal 1 0 -0
    outer loop
      vertex 1.41421 0 -0.707107
      vertex 1.41421 0 0.707107
      vertex 1.41421 -0.707107 0
    endloop
  endfacet
  facet normal 0 1 0
    outer loop
      vertex 0.707107 1.41421 0
      vertex -0.707107 1.41421 0
      vertex 0 1.41421 0.707107
    endloop
  endfacet
  facet normal -0 1 0
    outer loop
      vertex -0.707107 1.41421 0
      vertex 0.707107 1.41421 0
      vertex 0 1.41421 -0.707107
    endloop
  endfacet
  facet normal 0 0 -1
    outer loop
      vertex 0 -0.707107 -1.41421
      vertex 0 0.707107 -1.41421
      vertex 0.707107 0 -1.41421
    endloop
  endfacet
  facet normal 0 -0 -1
    outer loop
      vertex 0 0.707107 -1.41421
      vertex 0 -0.707107 -1.41421
      vertex -0.707107 0 -1.41421
    endloop
  endfacet
endsolid OpenSCAD_Model
