solid OpenSCAD_Model
  facet normal -0.57735 -0.57735 -0.57735
    outer loop
      vertex -0.353553 -1.06066 0.353553
      vertex 0.353553 -0.353553 -1.06066
      vertex 0.353553 -1.06066 -0.353553
    endloop
  endfacet
  facet normal -0.57735 -0.57735 -0.57735
    outer loop
      vertex -0.353553 -1.06066 0.353553
      vertex -0.353553 0.353553 -1.06066
      vertex 0.353553 -0.353553 -1.06066
    endloop
  endfacet
  facet normal -0.57735 -0.57735 -0.57735
    outer loop
      vertex -1.06066 -0.353553 0.353553
      vertex -0.353553 0.353553 -1.06066
      vertex -0.353553 -1.06066 0.353553
    endloop
  endfacet
  facet normal -0.57735 -0.57735 -0.57735
    outer loop
      vertex -0.353553 0.353553 -1.06066
      vertex -1.06066 -0.353553 0.353553
      vertex -1.06066 0.353553 -0.353553
    endloop
  endfacet
  facet normal -0.57735 0.57735 0.57735
    outer loop
      vertex 0.353553 1.06066 0.353553
      vertex -0.353553 -0.353553 1.06066
      vertex 0.353553 0.353553 1.06066
    endloop
  endfacet
  facet normal -0.57735 0.57735 0.57735
    outer loop
      vertex 0.353553 1.06066 0.353553
      vertex -1.06066 -0.353553 0.353553
      vertex -0.353553 -0.353553 1.06066
    endloop
  endfacet
  facet normal -0.57735 0.57735 0.57735
    outer loop
      vertex -0.353553 1.06066 -0.353553
      vertex -1.06066 -0.353553 0.353553
      vertex 0.353553 1.06066 0.353553
    endloop
  endfacet
  facet normal -0.57735 0.57735 0.57735
    outer loop
      vertex -1.06066 -0.353553 0.353553
      vertex -0.353553 1.06066 -0.353553
      vertex -1.06066 0.353553 -0.353553
    endloop
  endfacet
  facet normal 0.57735 0.57735 -0.57735
    outer loop
      vertex 1.06066 -0.353553 -0.353553
      vertex 0.353553 1.06066 0.353553
      vertex 1.06066 0.353553 0.353553
    endloop
  endfacet
  facet normal 0.57735 0.57735 -0.57735
    outer loop
      vertex 1.06066 -0.353553 -0.353553
      vertex -0.353553 1.06066 -0.353553
      vertex 0.353553 1.06066 0.353553
    endloop
  endfacet
  facet normal 0.57735 0.57735 -0.57735
    outer loop
      vertex 0.353553 -0.353553 -1.06066
      vertex -0.353553 1.06066 -0.353553
      vertex 1.06066 -0.353553 -0.353553
    endloop
  endfacet
  facet normal 0.57735 0.57735 -0.57735
    outer loop
      vertex -0.353553 1.06066 -0.353553
      vertex 0.353553 -0.353553 -1.06066
      vertex -0.353553 0.353553 -1.06066
    endloop
  endfacet
  facet normal 0.57735 -0.57735 0.57735
    outer loop
      vertex 0.353553 0.353553 1.06066
      vertex 1.06066 -0.353553 -0.353553
      vertex 1.06066 0.353553 0.353553
    endloop
  endfacet
  facet normal 0.57735 -0.57735 0.57735
    outer loop
      vertex 0.353553 0.353553 1.06066
      vertex 0.353553 -1.06066 -0.353553
      vertex 1.06066 -0.353553 -0.353553
    endloop
  endfacet
  facet normal 0.57735 -0.57735 0.57735
    outer loop
      vertex -0.353553 -0.353553 1.06066
      vertex 0.353553 -1.06066 -0.353553
      vertex 0.353553 0.353553 1.06066
    endloop
  endfacet
  facet normal 0.57735 -0.57735 0.57735
    outer loop
      vertex 0.353553 -1.06066 -0.353553
      vertex -0.353553 -0.353553 1.06066
      vertex -0.353553 -1.06066 0.353553
    endloop
  endfacet
  facet normal 0.57735 0.57735 0.57735
    outer loop
      vertex 0.353553 1.06066 0.353553
      vertex 0.353553 0.353553 1.06066
      vertex 1.06066 0.353553 0.353553
    endloop
  endfacet
  facet normal -0.57735 -0.57735 0.57735
    outer loop
      vertex -0.353553 -1.06066 0.353553
      vertex -0.353553 -0.353553 1.06066
      vertex -1.06066 -0.353553 0.353553
    endloop
  endfacet
  facet normal 0.57735 -0.57735 -0.57735
    outer loop
      vertex 0.353553 -0.353553 -1.06066
      vertex 1.06066 -0.353553 -0.353553
      vertex 0.353553 -1.06066 -0.353553
    endloop
  endfacet
  facet normal -0.57735 0.57735 -0.57735
    outer loop
      vertex -0.353553 0.353553 -1.06066
      vertex -1.06066 0.353553 -0.353553
      vertex -0.353553 1.06066 -0.353553
    endloop
  endfacet
endsolid OpenSCAD_Model
